<svg width="160" height="124" viewBox="0 0 160 124" fill="none" xmlns="http://www.w3.org/2000/svg">
<path d="M117.874 123.177C117.722 123.238 117.574 123.304 117.423 123.372C118.926 122.89 120.392 122.332 121.827 121.711L123.348 121.032C123.488 120.981 123.617 120.911 123.746 120.849C123.955 120.736 124.136 120.647 124.275 120.544C122.318 121.461 120.285 122.283 118.201 122.982C118.105 123.039 117.99 123.109 117.873 123.177H117.874ZM62.917 10.6352C64.5004 9.50721 66.1676 8.47178 67.8936 7.55315C67.5531 7.69101 67.2502 7.82167 66.975 7.955C65.1561 8.9163 63.4031 10.0029 61.7253 11.1661C62.0741 10.9914 62.4781 10.8133 62.9167 10.6349L62.917 10.6352ZM50.6201 23.1024C51.7398 21.4763 52.9558 19.9239 54.2499 18.4597C53.6259 18.7021 53.0667 18.9479 52.5499 19.1978C51.1783 20.7052 49.894 22.2942 48.6805 23.9512C49.2565 23.6621 49.9103 23.3917 50.6201 23.1027V23.1024ZM40.3187 40.5484C41.0568 40.1914 41.8853 39.8223 42.7954 39.4631C43.3924 37.4765 44.0775 35.5286 44.8604 33.6417C44.0135 33.9943 43.2364 34.3375 42.5453 34.6668C41.7064 36.5742 40.9645 38.5365 40.3187 40.5481V40.5484ZM47.8808 24.3528C49.1191 22.68 50.4402 21.0929 51.8422 19.5548C51.4161 19.7921 51.0489 20.0095 50.7761 20.2191C49.3162 21.7731 47.94 23.4059 46.6643 25.1034C46.9843 24.8693 47.3925 24.628 47.8805 24.3528H47.8808ZM48.9759 25.5794C48.2253 25.889 47.5467 26.1884 46.9499 26.4919C45.8305 28.206 44.8089 29.9942 43.8697 31.8514C44.5404 31.5338 45.2684 31.1976 46.1051 30.8651C46.9766 29.0294 47.9341 27.2807 48.9757 25.5791L48.9759 25.5794ZM57.1636 15.9494C57.7951 15.6971 58.4884 15.4499 59.2286 15.1974C60.443 13.8662 61.7344 12.6178 63.0818 11.4655C62.4664 11.6802 61.8858 11.8858 61.3549 12.0828C59.8867 13.2865 58.482 14.5678 57.1636 15.9496V15.9494ZM120.204 5.18844C118.26 4.389 116.262 3.67357 114.224 3.08079C113.933 3.02319 113.59 2.97013 113.215 2.93493C115.188 3.51944 117.123 4.21434 119.01 5.02205C119.461 5.06311 119.863 5.13164 120.204 5.18844H120.204ZM54.0179 17.3338C55.5005 15.8966 57.0754 14.5305 58.7076 13.2551C58.3713 13.4433 58.0924 13.6201 57.8753 13.7657C56.1773 15.0721 54.5509 16.4811 53.0089 17.9469C53.2779 17.7554 53.6099 17.5528 54.0179 17.3336V17.3338ZM65.9086 8.51045C64.3012 9.44321 62.1936 10.7656 60.6432 11.7663C60.8155 11.6453 61.0059 11.5309 61.2256 11.4143C62.7344 10.3746 64.2978 9.40828 65.9086 8.51071V8.51045ZM53.1219 17.7994L52.6521 18.2421C52.6521 18.2421 52.6689 18.2381 52.6705 18.2381C52.8182 18.0823 52.9699 17.941 53.1217 17.7994H53.1219ZM42.3397 48.1244C43.4266 47.7167 44.5772 47.3026 45.8259 46.8738C46.0499 44.7765 46.3694 42.7177 46.7902 40.6956C45.5963 41.1097 44.4849 41.5158 43.4594 41.8892C42.994 43.9312 42.6066 46.0143 42.3399 48.1244H42.3397ZM46.203 33.1186C45.4569 34.9804 44.8046 36.9083 44.2348 38.8927C45.2313 38.512 46.3014 38.1261 47.4619 37.7344C47.9669 35.7782 48.549 33.8671 49.2298 32.0319C48.1472 32.4007 47.1405 32.7556 46.203 33.1186ZM47.7453 46.2317C49.0677 45.8053 50.4642 45.3712 51.9268 44.9362C52.0718 42.8627 52.3054 40.8268 52.6177 38.8626C51.2105 39.2743 49.882 39.6868 48.6226 40.093C48.2352 42.094 47.9397 44.1427 47.7453 46.2319V46.2317ZM41.8128 57.8992C42.9407 57.4691 44.1444 57.0403 45.4566 56.5995C45.3907 54.3828 45.4137 52.2066 45.5553 50.0582C44.2831 50.4926 43.1047 50.9192 42.0135 51.3293C41.8477 53.4823 41.7738 55.6844 41.8125 57.8992H41.8128ZM44.3737 28.0644C44.2164 28.2057 44.0911 28.3427 44.0007 28.4721C42.9204 30.14 41.577 32.4418 40.56 34.1588C40.6664 33.9817 40.8264 33.7753 41.0437 33.5716C42.061 31.6856 43.1687 29.8422 44.3737 28.0646V28.0644ZM50.4028 20.5159C50.3572 20.5593 50.2996 20.6105 50.2551 20.6532C48.9141 22.1382 47.2181 24.2114 45.9489 25.7554C46.0267 25.6629 46.1291 25.5581 46.2462 25.4458C47.5461 23.7251 48.9301 22.0846 50.4028 20.5159ZM42.9423 32.321C43.9041 30.4592 44.9558 28.6521 46.1046 26.9161C45.5755 27.1945 45.1532 27.4486 44.8166 27.699C43.6298 29.4646 42.5343 31.2869 41.5381 33.1823C41.909 32.9132 42.381 32.6205 42.942 32.321H42.9423ZM41.5853 35.1548C40.9864 35.4787 40.5045 35.7782 40.1126 36.051C39.2249 37.9949 38.4228 39.986 37.7217 42.034C38.1361 41.7412 38.6569 41.4025 39.2969 41.0647C39.9507 39.0466 40.7115 37.0717 41.5853 35.1548ZM39.0795 37.1413L37.5289 40.7199C37.1935 41.5606 36.8729 42.4014 36.5879 43.2483C36.6783 43.0102 36.8729 42.7518 37.1844 42.4734C37.8878 40.4223 38.7059 38.4109 39.6086 36.467C39.3462 36.6971 39.1659 36.9203 39.0795 37.1413ZM39.4299 43.5947C38.8865 45.6661 38.4556 47.7697 38.1361 49.904C38.9251 49.523 39.8176 49.1401 40.8059 48.7316C41.0949 46.6092 41.493 44.5216 41.9869 42.4737C41.0435 42.8627 40.2032 43.232 39.4299 43.595V43.5947ZM66.023 9.51521C66.6161 9.33255 67.2315 9.13549 67.8934 8.94296C69.0992 7.94033 70.3749 7.03957 71.6913 6.24227C71.1887 6.40226 70.717 6.55265 70.2639 6.70198C68.7874 7.53635 67.3723 8.47151 66.023 9.51547V9.51521ZM97.6999 0.767544C97.0602 0.717946 96.4245 0.691014 95.7811 0.668348C95.1331 0.691014 94.2883 0.717946 93.6444 0.746478C94.5854 0.735012 95.5019 0.77741 96.4285 0.861407C96.8797 0.824609 97.3023 0.804076 97.6999 0.767544ZM95.7499 0.931005C94.7083 0.818742 93.6729 0.767544 92.6311 0.78781C92.065 0.824875 91.2999 0.879807 90.7325 0.931005C91.9114 0.861407 93.0822 0.923272 94.2758 1.07287C94.7838 1.02567 95.272 0.966203 95.7499 0.931005ZM93.4905 1.17313C92.3503 0.988602 91.2162 0.931005 90.08 0.988602C89.7461 1.04193 89.4117 1.0726 89.0568 1.12806C89.9776 1.08487 90.9042 1.18166 91.825 1.39712C92.4012 1.30806 92.9548 1.24273 93.4902 1.17286L93.4905 1.17313ZM99.3425 0.707813C99.2649 0.701413 99.1825 0.69368 99.1028 0.69368C98.4343 0.691014 97.5341 0.666748 96.8738 0.666748C97.3477 0.691014 97.8151 0.707813 98.2943 0.734745C98.6602 0.717679 99.0207 0.711813 99.3425 0.707546V0.707813ZM90.9437 1.51152C90.1317 1.28592 89.3259 1.18193 88.5219 1.19366C88.163 1.26139 87.8059 1.30832 87.4475 1.36805C88.0094 1.38885 88.583 1.52245 89.1784 1.78057C89.7709 1.68164 90.3637 1.59178 90.9439 1.51152H90.9437ZM103.15 2.29282C103.843 2.23575 104.498 2.18802 105.129 2.14536C103.499 1.66964 101.865 1.30832 100.196 1.0542C99.7236 1.08513 99.2295 1.11153 98.6903 1.17313C100.196 1.42325 101.678 1.80057 103.15 2.29282ZM118.267 4.95672C116.43 4.16315 114.545 3.45971 112.603 2.87333C112.173 2.85653 111.705 2.8424 111.18 2.8424C113.018 3.42691 114.822 4.11595 116.582 4.91965C117.197 4.91965 117.773 4.94072 118.268 4.95672H118.267ZM111.133 2.25629C110.954 2.21682 110.772 2.17629 110.594 2.13709C108.715 1.74964 106.181 1.34352 104.282 1.0582C104.228 1.0542 104.178 1.0542 104.112 1.04193C106.181 1.28592 108.224 1.65738 110.237 2.12083C110.578 2.16562 110.868 2.20669 111.133 2.25629H111.133ZM107.669 2.04909C105.859 1.57951 104.016 1.21606 102.149 0.976603C101.756 0.976603 101.346 0.988869 100.89 1.0158C102.621 1.26379 104.343 1.62458 106.033 2.10029C106.616 2.06536 107.161 2.05736 107.669 2.04936L107.669 2.04909ZM109.683 2.08349C107.721 1.61231 105.725 1.26139 103.696 1.01553C103.39 0.988602 103.062 0.976336 102.711 0.976336C104.627 1.21446 106.536 1.56325 108.4 2.04883C108.876 2.04883 109.294 2.05896 109.683 2.08323V2.08349ZM47.392 30.3584C48.2882 30.0163 49.2618 29.6718 50.2994 29.3152C51.0543 27.531 51.8926 25.8127 52.8051 24.168C51.8598 24.4922 50.9743 24.8061 50.1556 25.1274C49.1514 26.7927 48.2245 28.5499 47.392 30.3587V30.3584ZM71.9615 5.70255C73.2534 5.08791 74.5864 4.55193 75.9701 4.07862C75.2957 4.30634 74.4366 4.6266 73.7785 4.87245C72.8148 5.23751 71.8713 5.63909 70.969 6.06174C71.2703 5.94548 71.5961 5.81588 71.9615 5.70282V5.70255ZM88.2822 1.92777C87.808 1.64884 87.3443 1.48858 86.9057 1.45178C86.5369 1.51125 86.1718 1.56298 85.8145 1.64031C86.0158 1.71071 86.254 1.9155 86.4913 2.23549C87.0865 2.12029 87.6912 2.02163 88.2819 1.9275L88.2822 1.92777ZM65.1644 9.79786C66.5774 8.74164 68.0592 7.78407 69.6056 6.92064C69.1813 7.0537 68.7794 7.2057 68.4099 7.34729C66.7411 8.25152 65.1415 9.26268 63.6036 10.368C64.0794 10.1794 64.6007 9.99492 65.1644 9.79813V9.79786ZM73.719 5.14498C75.1072 4.46074 76.5301 3.87782 78.0146 3.41678C77.8919 3.45117 77.773 3.48637 77.6538 3.52717L76.8581 3.77889C75.3653 4.26368 73.9097 4.84552 72.5113 5.52816C72.8966 5.3975 73.2961 5.26817 73.7187 5.14498H73.719ZM72.3385 5.4447L70.0074 6.45186C70.1658 6.37533 70.3293 6.31853 70.5178 6.2404C71.1226 5.95561 71.7196 5.69722 72.3385 5.44496V5.4447ZM85.2612 1.73524C84.9004 1.80084 84.5375 1.86857 84.1866 1.94403C84.0559 2.08349 83.9365 2.34588 83.8378 2.72747C84.4263 2.61521 85.0135 2.49334 85.6055 2.38801C85.4764 2.05736 85.3599 1.83764 85.2609 1.73524H85.2612ZM86.3481 4.66739C86.1492 3.98689 85.9748 3.42931 85.8273 2.96986C85.1177 3.10719 84.4124 3.25065 83.7197 3.37998C83.6703 3.87809 83.6165 4.47273 83.6085 5.18044C84.509 5.01618 85.4212 4.82765 86.3481 4.66739ZM80.4219 3.43971C80.9427 2.96986 81.5046 2.61547 82.0949 2.38135C81.7589 2.45735 81.4251 2.51868 81.1027 2.60507C80.2905 2.88933 79.5214 3.28931 78.7791 3.81489C79.3166 3.67943 79.8558 3.5605 80.4217 3.43997L80.4219 3.43971ZM75.7467 4.57353C76.8621 3.95809 78.041 3.45997 79.2532 3.07626C78.958 3.14212 78.6711 3.22212 78.4129 3.29171C77.0138 3.7365 75.6603 4.29861 74.3707 4.95485C74.8078 4.82552 75.2755 4.69833 75.7467 4.57326V4.57353ZM77.9919 3.99489C78.8345 3.45997 79.7086 3.02532 80.6267 2.72774C80.2969 2.79973 79.9915 2.8736 79.7025 2.95759C78.5759 3.32238 77.4994 3.79436 76.4725 4.38927C76.9666 4.25328 77.4706 4.12848 77.9916 3.99489H77.9919ZM56.2477 16.3043C57.6217 14.9222 59.0678 13.6142 60.5888 12.3922C60.0926 12.5868 59.6497 12.7855 59.2681 12.9807C57.6561 14.227 56.1149 15.5728 54.6667 16.9997C55.1429 16.7696 55.661 16.5405 56.2474 16.3043H56.2477ZM135.977 112.612C136.061 112.735 136.092 112.84 136.061 112.969C137.789 111.611 139.452 110.17 141.028 108.632C141.046 108.487 141.016 108.347 140.919 108.216C139.346 109.766 137.701 111.236 135.977 112.612ZM146.338 100.188C145.071 101.976 143.718 103.693 142.28 105.341C142.59 105.417 142.824 105.542 143 105.653C144.464 104.016 145.856 102.316 147.152 100.542C146.957 100.413 146.687 100.288 146.338 100.188V100.188ZM144.296 99.8291C143.117 101.634 141.842 103.364 140.482 105.021C140.974 105.071 141.407 105.142 141.778 105.21C143.185 103.557 144.526 101.835 145.764 100.045C145.35 99.9581 144.866 99.8928 144.296 99.8291ZM143.004 106.799C144.341 105.323 146.035 103.239 147.302 101.679C147.331 101.634 147.374 101.584 147.395 101.536C146.092 103.283 144.694 104.941 143.216 106.535C143.166 106.629 143.095 106.713 143.004 106.799H143.004ZM135.569 113.605C136.018 113.261 136.451 112.91 136.883 112.543C138.044 111.589 139.51 110.209 140.632 109.211C140.769 109.09 140.861 108.975 140.925 108.866C139.346 110.375 137.708 111.812 135.977 113.166C135.903 113.297 135.764 113.439 135.568 113.605L135.569 113.605ZM140.732 108.043C140.564 107.933 140.331 107.835 140.047 107.761C138.542 109.323 136.931 110.82 135.249 112.226C135.487 112.297 135.682 112.391 135.807 112.474C137.519 111.082 139.174 109.6 140.732 108.043V108.043ZM127.398 118.916C129.323 117.87 131.183 116.736 132.957 115.508C133.129 115.368 133.26 115.243 133.34 115.13C131.525 116.373 129.647 117.55 127.691 118.614C127.64 118.708 127.542 118.805 127.398 118.915V118.916ZM127.187 119.086C127.31 119.018 127.428 118.928 127.556 118.869C127.264 119.028 126.94 119.236 126.673 119.381C126.862 119.281 127.037 119.188 127.187 119.086H127.187ZM127.691 118.241C127.744 118.309 127.769 118.389 127.751 118.485C129.703 117.399 131.595 116.213 133.406 114.938C133.424 114.825 133.4 114.72 133.326 114.63C131.525 115.925 129.641 117.138 127.691 118.241V118.241ZM138.388 107.462C136.949 109.055 135.438 110.56 133.851 111.981C134.224 112.026 134.573 112.073 134.855 112.137C136.508 110.72 138.089 109.214 139.588 107.633C139.244 107.56 138.848 107.513 138.388 107.461V107.462ZM55.2413 18.0642C53.9909 19.5223 52.8177 21.0521 51.7308 22.6654C52.5145 22.364 53.3486 22.0606 54.2408 21.7534C55.2413 20.1807 56.3197 18.6895 57.462 17.269C56.6559 17.5373 55.9341 17.8 55.2413 18.0642ZM157.493 72.877C157.141 75.0777 156.676 77.2531 156.089 79.4101C156.558 79.5272 156.92 79.6952 157.17 79.8816C157.756 77.7411 158.248 75.5652 158.619 73.3567C158.342 73.1749 157.971 73.012 157.493 72.877ZM154.073 89.4516C154.217 89.6276 154.268 89.831 154.217 90.0422C155.139 88.0612 155.96 86.0293 156.669 83.9459C156.71 83.7204 156.657 83.5132 156.503 83.3148C155.802 85.4021 154.98 87.4541 154.073 89.4516ZM132.343 115.943C130.809 116.999 129.202 117.962 127.556 118.869C129.137 117.94 130.921 116.847 132.343 115.943ZM157.483 80.1647C157.631 80.3493 157.696 80.5687 157.649 80.8085C158.076 79.3117 158.433 77.7918 158.752 76.2582L159.118 74.3223C159.156 74.0826 159.101 73.8589 158.939 73.6658C158.564 75.8497 158.088 78.0259 157.483 80.1645V80.1647ZM149.058 91.3339C148.139 93.3104 147.122 95.2359 146.019 97.086C146.614 97.1534 147.122 97.2209 147.561 97.3113C148.717 95.453 149.777 93.5402 150.743 91.5819C150.268 91.4795 149.71 91.3955 149.058 91.3339ZM151.411 91.7422C150.423 93.7021 149.337 95.6172 148.172 97.4588C148.533 97.5633 148.817 97.7003 149.015 97.8486C150.233 96.0092 151.334 94.1101 152.351 92.1536C152.121 91.9958 151.805 91.8627 151.411 91.7422ZM143.212 105.837C143.306 105.977 143.339 106.12 143.312 106.284C144.807 104.673 146.197 103.007 147.511 101.256C147.546 101.078 147.508 100.908 147.385 100.756C146.084 102.523 144.69 104.219 143.212 105.837ZM155.152 82.5799C154.485 84.6939 153.702 86.7586 152.806 88.7647C153.222 88.8953 153.561 89.0287 153.787 89.2007C154.696 87.1853 155.498 85.1432 156.206 83.0476C155.948 82.875 155.603 82.7231 155.152 82.5799ZM149.287 98.8859C149.973 97.8691 150.631 96.8313 151.26 95.7631L149.241 98.9592C149.257 98.9315 149.267 98.9107 149.288 98.8859H149.287ZM149.269 98.0657C149.402 98.2249 149.439 98.4019 149.402 98.5971C150.624 96.782 151.734 94.9015 152.761 92.9821C152.806 92.7691 152.757 92.5677 152.622 92.4059C151.601 94.3514 150.487 96.23 149.269 98.0657ZM159.811 63.5838C159.805 65.8624 159.671 68.1193 159.407 70.3441C159.552 70.5371 159.628 70.7358 159.595 70.9571C159.811 68.9191 159.906 66.1818 160 64.1334C160.005 63.9368 159.938 63.7662 159.811 63.5841L159.811 63.5838ZM78.3631 10.1669C79.5281 9.91679 80.7011 9.67067 81.8941 9.43121C81.9352 8.40165 82.0013 7.46062 82.0912 6.62199C81.088 6.83264 80.1062 7.03824 79.1265 7.25129C78.8433 8.11659 78.5889 9.09896 78.3631 10.1672V10.1669ZM79.5766 6.01641C80.4673 5.81588 81.3467 5.63909 82.2509 5.45056C82.3659 4.72899 82.5136 4.09328 82.6813 3.5869C82.0045 3.72423 81.3176 3.86796 80.6593 4.01302C80.2723 4.56473 79.9094 5.23751 79.5766 6.01641ZM82.6077 2.26829C82.124 2.47308 81.6768 2.81173 81.2539 3.25891C81.8224 3.14185 82.3984 3.02266 82.9664 2.892C83.1696 2.49334 83.4037 2.20642 83.6573 2.04883C83.2968 2.10829 82.9546 2.19042 82.6077 2.26829ZM77.7194 4.67113C77.0138 5.2943 76.3618 6.03267 75.7493 6.87584C76.573 6.67638 77.4244 6.48412 78.2895 6.29346C78.7057 5.49803 79.1593 4.81272 79.6553 4.22688C78.9849 4.37007 78.3593 4.52367 77.7194 4.67113ZM74.9696 5.3559C73.9872 6.04521 73.0483 6.85318 72.1625 7.75154C72.9249 7.56302 73.7166 7.36169 74.5288 7.16516C75.2301 6.31186 75.9781 5.54896 76.7783 4.90365C76.1482 5.04871 75.5523 5.20044 74.9693 5.35617L74.9696 5.3559ZM64.0346 11.153C62.7463 12.2868 61.5243 13.5215 60.3616 14.8211C61.1557 14.5673 61.9776 14.3172 62.8413 14.0502C63.8722 12.7772 64.9697 11.5895 66.1219 10.5053C65.3918 10.72 64.6948 10.9416 64.0346 11.1527V11.153ZM55.6392 21.2873C56.5906 20.9732 57.6036 20.6737 58.6636 20.3561C59.4979 18.8282 60.3944 17.3973 61.3539 16.0254C60.4214 16.3037 59.5267 16.5915 58.6836 16.8555C57.5951 18.2543 56.5821 19.7385 55.6389 21.287L55.6392 21.2873ZM64.1754 13.6614C65.086 13.4033 66.0438 13.1484 67.0275 12.878C67.8331 11.6655 68.7013 10.5458 69.6154 9.51521C68.789 9.73386 67.9995 9.96826 67.2371 10.1792C66.1667 11.2479 65.1412 12.4143 64.1754 13.6614ZM83.5962 6.32626C83.6082 7.14037 83.6434 8.059 83.6943 9.07416C84.8919 8.83843 86.1097 8.60218 87.3241 8.38752C87.0782 7.40515 86.8571 6.52146 86.6476 5.75642C85.6268 5.93695 84.6095 6.1276 83.5965 6.32626H83.5962ZM72.462 6.02494C71.2191 6.79824 70.0298 7.67181 68.8901 8.65604C69.5829 8.44458 70.2967 8.25152 71.0226 8.059C72.0132 7.12597 73.0364 6.2956 74.1107 5.57189C73.5281 5.72549 72.9868 5.88761 72.462 6.02494ZM118.462 122.547C118.497 122.573 118.509 122.631 118.497 122.662C120.65 121.897 122.741 121.009 124.763 120.029C124.779 119.968 124.763 119.891 124.714 119.832C122.696 120.839 120.617 121.741 118.462 122.547ZM118.312 122.889C120.434 122.167 122.489 121.337 124.48 120.4C124.589 120.316 124.667 120.226 124.718 120.152C122.7 121.113 120.617 121.983 118.47 122.743C118.443 122.783 118.39 122.848 118.312 122.889ZM118.178 25.6709C116.417 25.8887 114.571 26.1228 112.671 26.3887C113.409 28.1462 114.109 29.9832 114.785 31.8943C116.774 31.6216 118.697 31.3717 120.543 31.1421C119.804 29.2496 119.009 27.4228 118.178 25.6711V25.6709ZM132.321 114.183C132.063 114.133 131.762 114.096 131.415 114.055C129.75 115.4 128.023 116.645 126.231 117.794C126.494 117.829 126.719 117.866 126.92 117.904C128.795 116.764 130.587 115.515 132.321 114.183H132.321ZM129.572 113.961C128.052 115.321 126.469 116.575 124.811 117.736C125.165 117.736 125.497 117.753 125.805 117.765C127.552 116.619 129.239 115.366 130.861 114.018C130.472 113.99 130.045 113.973 129.572 113.961V113.961ZM95.8835 4.22714C94.8619 4.37034 93.8348 4.5322 92.8033 4.69833C93.4372 5.3975 94.0627 6.21107 94.6731 7.1177C95.908 6.93557 97.1221 6.73611 98.3359 6.56412C97.5298 5.68015 96.7082 4.90365 95.8837 4.22714H95.8835ZM109.87 12.1644C108.445 12.3324 106.989 12.5274 105.459 12.7322C106.308 13.9852 107.161 15.3464 107.994 16.7693C109.65 16.5483 111.258 16.3352 112.813 16.1547C111.867 14.7297 110.868 13.3948 109.87 12.1644H109.87ZM88.1896 5.47296C88.4968 6.23373 88.8168 7.09317 89.1616 8.04646C90.3749 7.82941 91.6138 7.61981 92.8364 7.41529C92.3089 6.48599 91.7946 5.66176 91.2658 4.94072C90.24 5.11244 89.2085 5.28284 88.1896 5.47296ZM89.0013 2.42375C88.292 2.54294 87.5867 2.66774 86.8854 2.78507C87.1454 3.21945 87.4265 3.7629 87.7158 4.41727C88.6464 4.25301 89.5736 4.08928 90.5021 3.93356C89.9898 3.32878 89.5018 2.81813 89.0011 2.42401L89.0013 2.42375ZM105.172 7.22223C103.993 7.36169 102.765 7.51768 101.489 7.69394C102.389 8.67231 103.282 9.73386 104.159 10.9032C105.599 10.7128 106.995 10.5381 108.328 10.3677C107.304 9.22748 106.253 8.17339 105.172 7.22196V7.22223ZM95.6288 8.56324C96.2437 9.58667 96.8736 10.6858 97.4991 11.8951C98.9919 11.6578 100.478 11.4258 101.956 11.2186C101.169 10.0405 100.361 8.96109 99.554 7.967C98.2516 8.15153 96.933 8.36298 95.6288 8.56351V8.56324ZM111.707 6.53959C113.079 7.46035 114.426 8.47098 115.728 9.59254C116.85 9.50081 117.918 9.43094 118.931 9.36935C117.487 8.25126 116.025 7.24303 114.522 6.3284C113.641 6.37533 112.697 6.45159 111.707 6.53959ZM128.721 17.0403C130.006 18.5167 131.238 20.0711 132.401 21.7198C133.625 21.6646 134.757 21.6273 135.807 21.6067C134.572 19.9767 133.273 18.4101 131.909 16.9381C130.925 16.9608 129.856 16.9877 128.721 17.0405V17.0403ZM135.36 29.8603C134.36 27.9844 133.263 26.1879 132.094 24.4632C131.005 24.4696 129.179 24.6274 127.929 24.6725C129.044 26.4068 130.067 28.2054 131.042 30.0816L135.36 29.8603H135.36ZM134.103 24.2357C135.208 25.9682 136.242 27.7745 137.209 29.6446C138.51 29.5851 139.75 29.5507 140.88 29.5299C139.871 27.658 138.764 25.8572 137.611 24.1306C136.516 24.149 135.347 24.1736 134.103 24.2357H134.103ZM121.633 61.1164C123.738 60.842 125.764 60.5711 127.721 60.3394C127.453 58.0509 127.115 55.7462 126.711 53.4292C124.735 53.6791 122.686 53.9476 120.561 54.2394C120.969 56.5377 121.33 58.8464 121.634 61.1164H121.633ZM126.483 39.7948C128.347 39.586 130.118 39.3991 131.824 39.2511C131.157 37.1579 130.414 35.1236 129.626 33.1778C127.961 33.3252 126.231 33.5074 124.414 33.7068C125.152 35.6811 125.843 37.7056 126.483 39.7948H126.483ZM143.18 58.8693C142.992 56.5702 142.705 54.2655 142.317 51.9589C140.839 52.0429 139.256 52.1576 137.611 52.3053C138.005 54.6201 138.304 56.9187 138.517 59.205C140.17 59.0722 141.712 58.9632 143.18 58.8693ZM138.61 32.5175C139.5 34.4654 140.322 36.4712 141.056 38.5685C142.43 38.5029 143.707 38.468 144.884 38.4477C144.138 36.3688 143.273 34.3468 142.336 32.4005C141.183 32.4213 139.939 32.4559 138.61 32.5175ZM141.925 82.1716C140.626 82.2473 139.256 82.3519 137.808 82.4727C137.467 84.5808 137.059 86.6416 136.57 88.6575C137.919 88.5546 139.207 88.4503 140.414 88.37C141 86.3442 141.499 84.2814 141.925 82.1719V82.1716ZM120.977 5.41377C119.23 4.72046 116.855 3.92049 115.076 3.31171C116.987 3.88422 118.836 4.5586 120.669 5.30684C120.794 5.33963 120.887 5.39057 120.977 5.41377ZM143.41 62.3078C141.954 62.3916 140.408 62.5068 138.78 62.6441C138.922 64.9099 138.968 67.1759 138.944 69.415C140.523 69.2673 142.032 69.1644 143.447 69.0871C143.521 66.8479 143.509 64.5795 143.41 62.3076V62.3078ZM143.258 72.4232C141.87 72.5072 140.387 72.6154 138.831 72.741C138.727 74.9535 138.542 77.1307 138.275 79.2843C139.754 79.1611 141.167 79.0563 142.487 78.9723C142.838 76.8291 143.082 74.6314 143.258 72.4232H143.258ZM149.206 71.9797C147.817 72.0661 146.777 72.0619 145.223 72.1976C145.112 74.4058 144.923 76.5854 144.661 78.7349L148.259 78.5096C148.585 76.3598 149.033 74.197 149.206 71.98V71.9797ZM147.215 81.9663C146.149 81.9745 145.027 82.0095 143.808 82.0751C143.338 84.1894 142.807 86.2517 142.179 88.2802C143.312 88.2348 144.394 88.1999 145.366 88.177C146.076 86.1509 146.695 84.0825 147.215 81.966V81.9663ZM149.36 62.062C148.171 62.0804 146.891 62.1193 145.524 62.1828C145.604 64.4691 145.597 66.733 145.506 68.974C146.839 68.9103 148.089 68.8775 149.241 68.8532C149.377 66.6181 149.422 64.3483 149.36 62.062ZM150.929 41.6276C149.73 41.6422 148.766 41.466 147.394 41.5252C148.044 43.6806 148.618 45.8989 149.106 48.1689L152.686 48.2694C152.198 45.9933 151.608 43.7851 150.929 41.6273V41.6276ZM144.257 91.1961C143.305 91.2038 142.28 91.2265 141.183 91.2798C140.469 93.2565 139.691 95.182 138.831 97.0457C139.829 96.9902 140.769 96.9577 141.626 96.9492C142.596 95.0834 143.461 93.1645 144.257 91.1961ZM124.491 108.127C123.769 109.675 122.996 111.156 122.179 112.534C123.068 112.44 123.926 112.359 124.734 112.277C125.72 110.865 126.657 109.376 127.531 107.801C126.566 107.891 125.541 108.002 124.491 108.127ZM126.271 114.072C125.652 114.113 124.988 114.162 124.28 114.223C123.161 115.546 121.982 116.797 120.751 117.927C121.285 117.883 121.794 117.84 122.271 117.812C123.669 116.668 125 115.411 126.271 114.072ZM131.077 100.255C129.901 100.37 128.654 100.498 127.371 100.643C126.809 102.41 126.201 104.108 125.533 105.738C126.673 105.619 127.768 105.49 128.804 105.392C129.63 103.749 130.376 102.035 131.077 100.255ZM136.018 99.8573C135.005 99.9272 133.932 100.011 132.816 100.099C132.058 101.883 131.217 103.605 130.338 105.26C131.332 105.18 132.274 105.105 133.171 105.053C134.195 103.395 135.135 101.661 136.018 99.8573ZM139.485 91.3723C138.318 91.4435 137.069 91.5342 135.785 91.643C135.22 93.5989 134.601 95.5223 133.904 97.3742C135.085 97.2694 136.217 97.183 137.283 97.1174C138.089 95.2703 138.817 93.3402 139.485 91.3721L139.485 91.3723ZM153.954 58.7232C153.81 56.4289 153.552 54.1178 153.166 51.813C152.251 51.7594 151.231 51.7205 150.123 51.7144C150.492 54.0234 150.767 56.3366 150.923 58.6312C152.022 58.6336 153.033 58.6661 153.954 58.7232ZM90.0733 2.24722C90.6578 2.62481 91.2727 3.10692 91.89 3.71756C92.8023 3.56557 93.7332 3.42877 94.644 3.28878C93.8155 2.7272 92.9975 2.26829 92.1772 1.94003C91.4818 2.03016 90.7725 2.14509 90.073 2.24722H90.0733ZM103.564 5.87881C102.471 5.02151 101.361 4.27754 100.25 3.6421C99.3417 3.7485 98.3823 3.87756 97.3813 4.01275C98.3204 4.67113 99.2289 5.44656 100.14 6.318C101.314 6.14787 102.457 6.01614 103.564 5.87881ZM102.088 2.38748C100.697 1.89497 99.2865 1.51125 97.8719 1.24273C97.32 1.28566 96.737 1.35339 96.1224 1.41712C97.3546 1.71071 98.589 2.10829 99.7908 2.62481C100.592 2.54268 101.351 2.45681 102.088 2.38748ZM98.5815 2.764C97.4533 2.23922 96.3298 1.8331 95.1896 1.53365C94.5582 1.60751 93.9019 1.68138 93.2129 1.78031C94.1419 2.10829 95.0752 2.55121 95.9979 3.10239C96.8962 2.98533 97.7533 2.8688 98.5818 2.764H98.5815ZM158.211 59.3349C158.703 59.4944 159.111 59.6586 159.388 59.8599C159.273 57.5672 159.027 55.2684 158.648 52.9573C158.374 52.7687 157.971 52.5885 157.465 52.4392C157.827 54.7452 158.088 57.0462 158.211 59.3349H158.211ZM127.572 118.142C129.516 117.033 131.374 115.808 133.182 114.5C133.064 114.418 132.887 114.35 132.676 114.275C130.925 115.606 129.087 116.832 127.197 117.972C127.353 118.019 127.486 118.083 127.572 118.142H127.572ZM108.208 5.3663C106.882 4.54847 105.516 3.82849 104.159 3.21945C103.341 3.28905 102.498 3.38424 101.612 3.48371C102.808 4.10155 104.015 4.84552 105.172 5.67429C106.23 5.55509 107.235 5.45456 108.209 5.3663H108.208ZM159.934 60.6615C159.8 58.5637 159.443 55.7793 159.191 53.7002C159.173 53.5375 159.111 53.4066 158.999 53.2677C159.384 55.582 159.62 57.8869 159.735 60.1671C159.856 60.3311 159.926 60.493 159.934 60.6615ZM137.652 107.41C137.148 107.37 136.573 107.354 135.944 107.354C134.646 108.946 133.26 110.467 131.795 111.896C132.325 111.896 132.807 111.908 133.233 111.939C134.774 110.51 136.262 108.997 137.652 107.41ZM157.936 69.5345C158.416 69.6796 158.801 69.8497 159.072 70.0427C159.328 67.8154 159.451 65.5517 159.47 63.2841C159.187 63.0891 158.801 62.9067 158.297 62.7694C158.289 65.0499 158.166 67.2989 157.936 69.5345ZM135.979 79.4832C136.204 77.3489 136.365 75.1668 136.448 72.9664C134.811 73.1104 133.1 73.289 131.326 73.4877C131.308 75.69 131.23 77.8654 131.085 80.0024C132.796 79.8037 134.425 79.6328 135.979 79.4832ZM136.286 62.8614C134.591 63.0233 132.801 63.2059 130.934 63.419C131.119 65.6936 131.246 67.9428 131.297 70.1739C133.116 69.9726 134.847 69.7843 136.5 69.6366C136.508 67.3914 136.441 65.1459 136.286 62.8614ZM136.006 59.4346C135.774 57.1424 135.465 54.8353 135.065 52.5327C133.325 52.6946 131.511 52.8831 129.618 53.101C130.012 55.4057 130.342 57.7043 130.602 59.9909C132.487 59.7818 134.279 59.5887 136.005 59.4346H136.006ZM128.962 49.6438C130.851 49.4347 132.676 49.2393 134.416 49.0715C133.933 46.81 133.399 44.5893 132.792 42.4297C131.07 42.5982 129.267 42.787 127.383 42.9958C127.971 45.1554 128.503 47.3743 128.962 49.6438H128.962ZM152.01 41.8212C152.728 43.9637 153.327 46.1911 153.831 48.4705C154.645 48.5409 155.353 48.639 155.972 48.7785C155.469 46.5023 154.865 44.2859 154.134 42.1307C153.548 41.9953 152.839 41.8892 152.01 41.8212ZM138.944 38.6794C138.216 36.5979 137.412 34.5761 136.545 32.6287C135.136 32.7143 133.635 32.8215 132.058 32.95C132.874 34.9046 133.635 36.9267 134.328 39.0242C135.945 38.8925 137.486 38.7717 138.944 38.6794H138.944ZM149.185 58.6339C149.022 56.3409 148.758 54.0279 148.375 51.7208C147.159 51.7354 145.863 51.7762 144.464 51.8528C144.85 54.1388 145.137 56.4558 145.325 58.7581C146.703 58.6784 147.995 58.6541 149.185 58.6341L149.185 58.6339ZM157.37 59.1354C157.26 56.839 156.997 54.5361 156.624 52.2296C156.009 52.096 155.283 51.996 154.475 51.9098C154.847 54.2231 155.102 56.5379 155.242 58.8218C156.048 58.904 156.764 59.0029 157.37 59.1354ZM130.52 21.8283C129.389 20.1719 128.203 18.6197 126.957 17.1349C125.749 17.2104 124.479 17.2946 123.116 17.4093C124.266 18.9079 125.374 20.4708 126.419 22.1273C127.863 21.9945 129.227 21.8918 130.52 21.8281V21.8283ZM117.676 11.3375C118.937 12.5535 120.167 13.8558 121.366 15.2523C122.665 15.1521 123.897 15.0577 125.068 14.9857C123.77 13.5956 122.425 12.2978 121.038 11.1018C119.972 11.157 118.841 11.2351 117.676 11.3375ZM142.11 41.7556C142.756 43.9024 143.327 46.1165 143.81 48.3974C145.199 48.323 146.51 48.2862 147.721 48.27C147.234 45.9938 146.651 43.7856 145.971 41.6278C144.772 41.6425 143.475 41.6833 142.11 41.7556ZM141.654 48.5081C141.183 46.2298 140.613 44.0192 139.973 41.8638C138.503 41.9441 136.942 42.0593 135.314 42.2126C135.919 44.3637 136.484 46.5786 136.949 48.8588C138.61 48.7169 140.183 48.602 141.654 48.5081ZM158.535 50.1931C158.059 48.1508 157.26 45.4688 156.66 43.447C156.628 43.3523 156.572 43.2483 156.503 43.1619C157.235 45.3256 157.846 47.5439 158.342 49.8241C158.449 49.9414 158.498 50.0619 158.535 50.1931H158.535ZM155.459 40.2071C154.684 38.3413 153.489 35.8683 152.588 34.0265C152.57 33.9812 152.539 33.9239 152.507 33.8775C153.548 35.8315 154.489 37.876 155.33 39.965C155.39 40.0471 155.437 40.125 155.459 40.2071ZM157.473 62.566C156.864 62.4369 156.162 62.3321 155.363 62.2649C155.385 64.5347 155.276 66.7946 155.069 69.0374C155.854 69.1201 156.546 69.2225 157.128 69.343C157.356 67.1023 157.477 64.8363 157.473 62.566ZM156.812 48.9897C157.313 49.1395 157.713 49.303 157.998 49.5057C157.506 47.238 156.883 45.0074 156.162 42.8537C155.867 42.659 155.476 42.475 154.98 42.3395C155.697 44.484 156.308 46.709 156.812 48.9894V48.9897ZM154.424 82.4092C153.893 82.2921 153.276 82.194 152.552 82.1364C151.92 84.2403 151.19 86.3034 150.366 88.3412C151.034 88.4132 151.627 88.4866 152.128 88.5852C152.986 86.5733 153.753 84.5086 154.424 82.4089L154.424 82.4092ZM143.417 99.7501C142.784 99.7243 142.09 99.7056 141.337 99.7056C140.252 101.508 139.096 103.241 137.862 104.901C138.538 104.908 139.147 104.918 139.695 104.968C141.015 103.295 142.251 101.56 143.417 99.7504V99.7501ZM137.478 99.7877C136.549 101.584 135.53 103.323 134.47 104.988C135.304 104.94 136.085 104.907 136.809 104.906C138.001 103.241 139.106 101.508 140.141 99.7053C139.323 99.7173 138.442 99.736 137.478 99.7877H137.478ZM154.987 39.6655C154.153 37.5661 153.21 35.5401 152.162 33.5711C151.883 33.3991 151.51 33.2204 151.028 33.0772C152.051 35.0313 152.986 37.0573 153.815 39.1533C154.319 39.2925 154.696 39.4685 154.987 39.6658V39.6655ZM151.42 82.0439C150.597 81.993 149.712 81.9663 148.742 81.9559C148.176 84.0742 147.534 86.1475 146.798 88.177C147.721 88.177 148.545 88.2119 149.295 88.2572C150.099 86.2272 150.8 84.1542 151.42 82.0439ZM156.694 72.6792C156.128 72.5562 155.451 72.4536 154.684 72.3819C154.37 74.5986 153.946 76.7801 153.409 78.9376C154.153 78.9973 154.801 79.0995 155.342 79.2144C155.906 77.0731 156.365 74.8852 156.694 72.6792ZM148.024 91.255C147.302 91.2035 146.506 91.1958 145.623 91.1811C144.796 93.152 143.883 95.0834 142.885 96.9492C143.693 96.9492 144.429 96.9726 145.09 97.0236C146.15 95.157 147.146 93.2213 148.024 91.255ZM129.938 9.99199C128.22 8.96456 125.854 7.72834 124.078 6.79745C123.944 6.72945 123.788 6.67212 123.598 6.60892C125.529 7.53982 127.395 8.56271 129.216 9.68853C129.515 9.76666 129.759 9.87946 129.938 9.99199ZM128.646 9.54747C126.854 8.43551 125.009 7.41076 123.093 6.48546C122.728 6.41613 122.298 6.3484 121.81 6.31133C123.653 7.2177 125.447 8.22246 127.186 9.33201C127.744 9.37708 128.228 9.45708 128.645 9.54747H128.646ZM134.617 14.9526C135.249 15.0163 135.82 15.0918 136.295 15.1966C134.7 13.8001 133.03 12.5002 131.292 11.2882C130.849 11.1959 130.342 11.1181 129.749 11.0685C131.434 12.2722 133.059 13.566 134.618 14.9523L134.617 14.9526ZM124.229 9.20109C124.986 9.20109 125.677 9.22722 126.303 9.26215C124.594 8.15073 122.825 7.14623 121.028 6.24147C120.471 6.21027 119.862 6.19054 119.197 6.19054C120.92 7.0929 122.601 8.08913 124.229 9.20109H124.229ZM141.125 21.7806C141.848 21.8505 142.471 21.9427 143.004 22.0491C141.627 20.3927 140.179 18.8279 138.645 17.3514C138.149 17.2512 137.558 17.1605 136.883 17.0992C138.37 18.5751 139.783 20.1343 141.125 21.7806ZM150.526 30.6901C149.385 28.7998 148.149 26.9812 146.827 25.2317C146.572 25.0573 146.211 24.9061 145.758 24.7728C147.063 26.5071 148.276 28.3137 149.402 30.1979C149.882 30.3477 150.259 30.4997 150.526 30.6901ZM146.599 29.7099C147.374 29.7862 148.044 29.8787 148.619 29.9931C147.507 28.1172 146.293 26.3124 145.006 24.5898C144.456 24.469 143.81 24.3869 143.074 24.3112C144.333 26.0255 145.518 27.8361 146.599 29.7099ZM150.923 31.0842C149.859 29.384 148.303 27.194 147.159 25.5349C147.152 25.5349 147.146 25.5349 147.146 25.5349C148.464 27.2676 149.71 29.0889 150.849 30.9808C150.878 31.012 150.903 31.057 150.923 31.084L150.923 31.0842ZM144.772 22.6811C143.365 21.0321 141.872 19.4511 140.308 17.9463C140.064 17.7861 139.75 17.6453 139.329 17.5258C140.88 19.0122 142.348 20.5828 143.746 22.2358C144.181 22.3627 144.529 22.527 144.772 22.6811ZM137.89 15.764C136.241 14.3593 134.535 13.0409 132.751 11.8149C132.538 11.665 132.259 11.5442 131.898 11.4253C133.637 12.6479 135.333 13.9678 136.949 15.3526C137.347 15.4715 137.664 15.6123 137.89 15.764ZM154.079 62.1617C153.179 62.1068 152.17 62.0652 151.075 62.0574C151.124 64.3379 151.066 66.6053 150.903 68.8529C151.973 68.8575 152.949 68.8916 153.835 68.9468C154.011 66.7079 154.108 64.4398 154.079 62.1617ZM126.639 10.9149C128.203 12.1186 129.733 13.4185 131.183 14.7987C132.062 14.8067 132.858 14.8206 133.584 14.8686C132.061 13.4881 130.465 12.1924 128.818 10.9906C128.156 10.9578 127.42 10.9312 126.639 10.9149H126.639ZM133.34 16.9373C134.734 18.4015 136.061 19.9684 137.33 21.6019C138.3 21.6062 139.19 21.6473 139.994 21.6899C138.673 20.0439 137.283 18.4981 135.827 17.0171C135.073 16.976 134.242 16.9539 133.34 16.9373ZM115.824 6.25827C117.38 7.16463 118.9 8.18139 120.391 9.28055C121.338 9.23948 122.233 9.21922 123.05 9.20082C121.453 8.08886 119.829 7.09263 118.152 6.19027C117.43 6.19853 116.655 6.22707 115.824 6.258V6.25827ZM108.549 2.88853C110.206 3.48317 111.84 4.18288 113.433 4.97272C114.213 4.94018 114.946 4.92525 115.611 4.91912C113.905 4.11542 112.156 3.42638 110.366 2.84186C109.806 2.84373 109.193 2.86426 108.549 2.88853ZM122.579 11.0074C124.02 12.2127 125.406 13.5089 126.756 14.8905C127.845 14.8499 128.87 14.819 129.817 14.8067C128.396 13.4185 126.92 12.1271 125.382 10.9186C124.512 10.9413 123.573 10.9578 122.579 11.0074ZM134.984 107.354C134.309 107.364 133.572 107.395 132.796 107.417C131.644 109.002 130.426 110.524 129.15 111.949C129.799 111.918 130.413 111.901 130.989 111.896C132.384 110.473 133.719 108.945 134.984 107.353L134.984 107.354ZM148.171 32.5786C149.168 34.531 150.074 36.559 150.878 38.6293C151.686 38.7157 152.397 38.8165 152.986 38.9455C152.17 36.856 151.249 34.8342 150.232 32.8762C149.636 32.7546 148.956 32.6607 148.171 32.5783V32.5786ZM139.174 24.1261C140.358 25.8407 141.478 27.6452 142.512 29.5238C143.559 29.5296 144.511 29.5664 145.382 29.6115C144.296 27.7356 143.15 25.9367 141.897 24.2168C141.081 24.1656 140.174 24.1301 139.174 24.1261ZM144 32.3941C144.96 34.3465 145.833 36.3536 146.598 38.445C147.701 38.4592 148.705 38.4818 149.598 38.5354C148.809 36.4462 147.9 34.4342 146.927 32.4839C146.043 32.4351 145.071 32.3999 144 32.3938L144 32.3941ZM153.455 72.2896C152.588 72.2317 151.636 72.1971 150.588 72.1971C150.332 74.4114 149.963 76.5993 149.498 78.7528C150.505 78.7587 151.419 78.7933 152.251 78.8451C152.756 76.6817 153.156 74.4999 153.455 72.2896H153.455ZM124.621 119.747C124.537 119.69 124.426 119.639 124.298 119.601C122.322 120.645 120.291 121.571 118.202 122.4C118.282 122.428 118.356 122.449 118.414 122.492C120.542 121.678 122.617 120.774 124.62 119.747L124.621 119.747ZM118.061 122.363C120.121 121.541 122.125 120.581 124.069 119.535C123.897 119.507 123.698 119.478 123.478 119.464C121.606 120.506 119.687 121.469 117.704 122.314C117.835 122.325 117.966 122.343 118.06 122.363H118.061ZM119.919 50.7867C122.035 50.4918 124.09 50.2232 126.07 49.9958C125.591 47.7132 125.082 45.4925 124.512 43.3296C122.556 43.5592 120.534 43.8254 118.422 44.1205C118.959 46.2965 119.459 48.5073 119.919 50.7867ZM128.957 107.677C128.004 109.256 127.001 110.749 125.935 112.162C126.706 112.098 127.44 112.052 128.133 112.008C129.356 110.585 130.495 109.072 131.587 107.487C130.758 107.535 129.891 107.599 128.958 107.677H128.957ZM127.186 114.026C125.843 115.367 124.428 116.622 122.978 117.786C123.421 117.752 123.843 117.748 124.247 117.735C125.832 116.574 127.371 115.32 128.832 113.973C128.322 113.985 127.776 113.997 127.186 114.026V114.026ZM124.205 22.3176C123.187 20.6729 122.142 19.0858 121.046 17.6072C119.631 17.733 118.143 17.8922 116.589 18.0626C117.573 19.5695 118.532 21.1444 119.439 22.8096C121.106 22.627 122.685 22.4608 124.205 22.3174V22.3176ZM114.007 9.75146C112.76 8.63044 111.479 7.59875 110.179 6.67185C109.137 6.77451 108.052 6.88518 106.914 7.02037C108.058 7.95367 109.192 8.99283 110.299 10.1333C111.587 9.99172 112.822 9.86266 114.007 9.75173V9.75146ZM128.385 30.288C127.531 28.4011 126.638 26.5889 125.676 24.8578C124.114 25.0138 122.488 25.1738 120.794 25.3642C121.665 27.1076 122.488 28.9369 123.273 30.8216C125.068 30.6301 126.763 30.4373 128.385 30.288ZM105.34 3.10612C106.793 3.71703 108.223 4.42874 109.629 5.23644C110.548 5.15404 111.413 5.09698 112.243 5.04765C110.708 4.24421 109.135 3.5405 107.533 2.95626C106.841 2.99732 106.112 3.04852 105.34 3.10612ZM119.365 15.4336C118.237 14.0294 117.06 12.7311 115.846 11.5029C114.596 11.6218 113.299 11.7653 111.938 11.9172C113.016 13.1473 114.07 14.4638 115.089 15.8832C116.574 15.7128 117.999 15.5608 119.365 15.4336Z" fill="#065095"/>
<path d="M8.13382 71.0537V72.4995H5.279V85.8094H3.29694V72.4995H0V71.0537H8.13382ZM11.967 77.7673L15.1487 71.0537H17.2495L13.6608 78.0801L17.5756 85.8096H15.469L11.967 78.4718V85.8096H9.98468V71.054H11.967V77.7676V77.7673ZM22.6991 79.8437V81.24H19.1894V79.8437H22.6991ZM24.1503 87.8794V84.3636H25.0574L27.964 71.0537H30.2484L33.2059 84.3636H34.1136V87.8794H32.1313V85.8094H26.1313V87.8794H24.1503ZM27.0288 84.3636H31.2215L29.6053 76.2548C29.5453 75.9583 29.3938 75.1058 29.1485 73.7021L29.1013 73.3896C28.9517 74.4034 28.7864 75.3535 28.6192 76.2295L27.0288 84.3633V84.3636ZM40.023 70.759C40.8331 70.759 41.5808 70.9769 42.2696 71.3993C43.0949 71.9107 43.7188 72.8048 44.1375 74.0797C44.5329 75.3031 44.7329 76.7553 44.7329 78.4385C44.7329 81.3282 44.1687 83.4489 43.0391 84.8038C42.7106 85.2035 42.2696 85.5177 41.7184 85.751C41.1669 85.9846 40.5859 86.104 39.9713 86.104C39.1214 86.104 38.3511 85.8888 37.6599 85.4649C36.8452 84.959 36.2237 84.067 35.8066 82.7834C35.4 81.5602 35.1984 80.1256 35.1984 78.4929C35.1984 75.5431 35.761 73.3987 36.8802 72.0563C37.2239 71.6545 37.6729 71.3345 38.2281 71.1065C38.7833 70.8761 39.3851 70.7588 40.023 70.7588V70.759ZM39.9219 72.1662C39.0609 72.1662 38.4041 72.7024 37.9505 73.7762C37.4951 74.8485 37.2679 76.4068 37.2679 78.4382C37.2679 80.6237 37.5471 82.2794 38.1113 83.4073C38.534 84.2697 39.1545 84.6961 39.971 84.6961C40.7787 84.6961 41.3952 84.2694 41.8184 83.4073C42.3821 82.2794 42.661 80.6453 42.661 78.511C42.661 74.2821 41.7491 72.1659 39.9217 72.1659L39.9219 72.1662ZM57.5575 71.0537L58.4247 85.8094H56.4445L56.089 77.8745C56.0829 77.7321 56.0658 77.53 56.04 77.2769C56.0048 76.9633 55.988 76.7527 55.988 76.646C55.988 76.5716 56.0008 76.3242 56.0256 75.893C56.0344 75.709 56.04 75.4612 56.04 75.1618C56.04 75.0514 56.04 74.8735 56.04 74.6221C55.8546 75.757 55.6197 76.8399 55.3445 77.8748L53.4995 85.8096H51.4337L49.4221 77.5524C49.3453 77.2486 49.2728 76.8737 49.1965 76.4353C49.0901 75.7674 48.981 75.1618 48.881 74.6221C48.8981 75.3405 48.9056 75.8767 48.9056 76.2188C48.9056 76.5511 48.881 76.9932 48.8293 77.5524L48.4749 85.8096H46.4942L47.3504 71.054H49.6253L52.0359 80.6346C52.1548 81.1029 52.234 81.5112 52.2758 81.8655C52.3561 82.4322 52.4156 82.9159 52.4646 83.3121C52.5828 82.153 52.7268 81.2634 52.9057 80.6346L55.3064 71.054H57.5575V71.0537ZM64.8986 70.9537L68.588 85.8094H66.6918L65.5063 80.9981H62.6029L61.3918 85.8094H59.5852L63.296 70.9537H64.8988H64.8986ZM65.1532 79.5923L64.354 76.1356C64.2034 75.4463 64.1029 74.6946 64.0402 73.8776C63.9991 74.2661 63.9754 74.5181 63.9674 74.6434C63.9066 75.2351 63.829 75.7268 63.7381 76.1356L62.9429 79.5923H65.1532ZM82.3736 71.0534V85.8091H70.2768V71.0534H72.2588V84.3633H75.3408V71.0534H77.3226V84.3633H80.3916V71.0534H82.3739H82.3736ZM87.2558 71.0534V77.5297H91.3839V71.0534H93.3649V85.8091H91.3839V78.979H87.2558V85.8091H85.2735V71.0534H87.2558ZM98.4018 71.0534V85.8091H96.4195V71.0534H98.4018ZM101.472 71.0534H103.454V81.0216C103.445 81.5045 103.416 81.9423 103.363 82.3436C103.449 82.0394 103.522 81.7461 103.578 81.4623C103.62 81.2717 103.677 81.0733 103.742 80.8784L107.496 71.0532H109.654V85.8088H107.672V76.3396C107.697 75.6756 107.728 75.0663 107.762 74.5122C107.669 74.8479 107.599 75.0922 107.559 75.2386C107.415 75.7666 107.305 76.1364 107.228 76.3396L103.543 85.8088H101.472V71.0532L101.472 71.0534ZM106.988 67.1477H108.401C108.345 67.8613 108.098 68.4607 107.669 68.9407C107.165 69.5065 106.46 69.7892 105.56 69.7892C104.759 69.7892 104.104 69.5503 103.591 69.078C103.078 68.5996 102.786 67.9575 102.72 67.1477H104.146C104.339 68.1002 104.79 68.5762 105.495 68.5762C106.271 68.5762 106.767 68.1002 106.988 67.1477H106.988Z" fill="#065095"/>
<path d="M12.0991 91.8188V93.9902H7.92009V113.885H5.01967V93.9902H0.189453V91.8188H12.0991ZM22.9379 91.8188V93.9902H18.0888V101.487H22.9379V103.654H18.0888V111.716H23.2528V113.885H15.1862V91.8191H22.9379V91.8188ZM29.2649 101.857L33.9212 91.8188H36.9931L31.7434 102.324L37.4728 113.885H34.3884L29.2649 102.907V113.885H26.361V91.8188H29.2649V101.857ZM51.7123 97.1706H48.9366C48.8537 95.9995 48.6412 95.139 48.3113 94.5851C47.8396 93.8302 47.0951 93.4532 46.073 93.4532C44.6333 93.4532 43.5747 94.2726 42.9049 95.9005C42.2292 97.5351 41.8961 100.117 41.8961 103.648C41.8961 106.646 42.2292 108.83 42.8921 110.2C43.2011 110.819 43.6291 111.319 44.187 111.682C44.7392 112.05 45.3464 112.232 45.9976 112.232C47.7514 112.232 48.7295 110.783 48.9366 107.89H51.7123C51.5491 112.174 49.5564 114.32 45.7253 114.32C43.4659 114.32 41.8199 113.591 40.7716 112.135C40.1788 111.338 39.7741 110.49 39.5495 109.586C39.092 107.688 38.8661 105.586 38.8661 103.278C38.8661 100.974 39.012 99.1082 39.3021 97.6866C39.5919 96.2648 40.0775 95.0003 40.7716 93.8892C41.2367 93.134 41.9321 92.526 42.8625 92.0636C43.7694 91.601 44.8045 91.3671 45.964 91.3671C47.7516 91.3671 49.1449 91.8679 50.143 92.8767C51.1392 93.8892 51.6621 95.3171 51.7125 97.1706H51.7123ZM65.7136 91.8188V93.9902H61.5356V113.885H58.6339V93.9902H53.8085V91.8188H65.7136ZM68.8031 91.8188H71.7064V106.722C71.6963 107.446 71.6491 108.1 71.5739 108.7C71.7008 108.245 71.807 107.805 71.8891 107.385C71.9526 107.099 72.0339 106.804 72.1296 106.512L77.6265 91.8188H80.7858V113.885H77.8846V99.7255C77.923 98.7335 77.9646 97.8213 78.0166 96.9925C77.8763 97.4957 77.7769 97.8599 77.7201 98.0797C77.5067 98.8692 77.3491 99.4244 77.2345 99.7255L71.8387 113.885H68.8036V91.8188H68.8031ZM96.8012 113.885H93.9722L90.7737 99.8204C90.5844 98.9732 90.4321 97.6802 90.3142 95.9587C90.1742 97.6903 90.0172 98.9812 89.8279 99.8204L86.6669 113.885H83.6174L88.9074 91.8188H91.5118L96.8015 113.885H96.8012ZM102.552 91.8188V101.018H103.96C105.449 101.018 106.58 101.285 107.343 101.813C108.816 102.822 109.556 104.767 109.556 107.643C109.556 109.788 109.101 111.362 108.202 112.367C107.293 113.38 105.879 113.885 103.96 113.885H99.6539V91.8188H102.552ZM102.552 111.716H103.96C104.738 111.716 105.298 111.501 105.638 111.072C106.232 110.313 106.528 109.161 106.528 107.61C106.528 105.562 106.142 104.216 105.381 103.57C105.109 103.349 104.634 103.228 103.959 103.228H102.552V111.716H102.552Z" fill="#065095"/>
</svg>
