<?xml version="1.0" encoding="utf-8"?><svg xmlns="http://www.w3.org/2000/svg" xmlns:xlink="http://www.w3.org/1999/xlink"><symbol viewBox="0 0 17 17" id="Burger" xmlns="http://www.w3.org/2000/svg"><path class="aaburger-fill aaburger-fill_active" d="M0 0h3v3H0z"/><path class="aaburger-fill" d="M0 7h3v3H0z"/><path class="aaburger-fill aaburger-fill_active" d="M0 14h3v3H0z"/><path class="aaburger-fill" d="M7 0h3v3H7z"/><path class="aaburger-fill aaburger-fill_active" d="M7 7h3v3H7z"/><path class="aaburger-fill" d="M7 14h3v3H7z"/><path class="aaburger-fill aaburger-fill_active" d="M14 0h3v3h-3z"/><path class="aaburger-fill" d="M14 7h3v3h-3z"/><path class="aaburger-fill aaburger-fill_active" d="M14 14h3v3h-3z"/></symbol><symbol viewBox="0 0 38.2 72.1" id="arr-next" xmlns="http://www.w3.org/2000/svg"><path d="M2.1 71.4l35.4-35.3L2.1.7l-.7.7 34.7 34.7L1.4 70.7z"/></symbol><symbol viewBox="0 0 38.2 72.1" id="arr-prev" xmlns="http://www.w3.org/2000/svg"><path d="M36.8 71.4L1.4 36.1 36.8.7l.7.7L2.8 36.1l34.7 34.6z"/></symbol><symbol viewBox="0 0 63 50" id="barcode" xmlns="http://www.w3.org/2000/svg"><path d="M5.71 40.125V6.75h1.083v33.375H5.709zm5.206-5.208V6.75h2.125v28.167h-2.125zm6.25 0V6.75h1.083v28.167h-1.083zm4.168 0V6.75h2.125v28.167h-2.125zm5.206 0V6.75h1.084v28.167h-1.083zM2.083 1.583h-.5V5.75H.5V1.042C.5.742.743.5 1.042.5H5.75v1.083H2.083zM30.71 40.125V6.75h1.083v33.375h-1.084zm9.374-5.208V6.75h2.125v28.167h-2.125zm6.25 0V6.75h1.084v28.167h-1.084zm4.166 0V6.75h2.125v28.167H50.5zm5.21 5.208V6.75h1.083v33.375h-1.084zM1.583 47.917v.5H5.75V49.5H1.042a.542.542 0 0 1-.542-.542V44.25h1.083v3.667zm58.834.5h.5V44.25H62v4.708a.542.542 0 0 1-.542.542H56.75v-1.083h3.667zm.5-46.334v-.5H56.75V.5h4.708c.3 0 .542.243.542.542V5.75h-1.083V2.083zM9.875 40.125V38h1.083v2.125H9.875zm4.165 0V38h1.084v2.125h-1.083zm4.17 0V38h1.083v2.125h-1.084zm4.165 0V38h1.083v2.125h-1.083zm4.165 0V38h1.084v2.125h-1.083zm8.335 0V38h1.083v2.125h-1.083zm4.165 0V38h1.084v2.125h-1.083zm4.17 0V38h1.083v2.125h-1.084zm4.165 0V38h1.083v2.125h-1.083zm4.169 0V38h1.083v2.125h-1.083zm-15.628-5.208V6.75h1.083v28.167h-1.083z"/><path d="M5.71 40.125V6.75h1.083v33.375H5.709zm5.206-5.208V6.75h2.125v28.167h-2.125zm6.25 0V6.75h1.083v28.167h-1.083zm4.168 0V6.75h2.125v28.167h-2.125zm5.206 0V6.75h1.084v28.167h-1.083zm4.17 5.208V6.75h1.083v33.375h-1.084zm9.374-5.208V6.75h2.125v28.167h-2.125zm6.25 0V6.75h1.084v28.167h-1.084zm4.166 0V6.75h2.125v28.167H50.5zm5.21 5.208V6.75h1.083v33.375h-1.084zm-45.835 0V38h1.083v2.125H9.875zm4.165 0V38h1.084v2.125h-1.083zm4.17 0V38h1.083v2.125h-1.084zm4.165 0V38h1.083v2.125h-1.083zm4.165 0V38h1.084v2.125h-1.083zm8.335 0V38h1.083v2.125h-1.083zm4.165 0V38h1.084v2.125h-1.083zm4.17 0V38h1.083v2.125h-1.084zm4.165 0V38h1.083v2.125h-1.083zm4.165 0V38h1.084v2.125h-1.083zm-15.624-5.208V6.75h1.083v28.167h-1.083z"/></symbol><symbol viewBox="0 0 14 14" id="basket" xmlns="http://www.w3.org/2000/svg"><path d="M12.833 1.259H2.517v.09L2.388.907A1.265 1.265 0 0 0 1.18 0H.315a.315.315 0 1 0 0 .63h.865c.278 0 .526.186.604.453l1.959 6.715-1.004 1.255a1.014 1.014 0 0 0 .792 1.647h8.742a.315.315 0 1 0 0-.63H3.53a.385.385 0 0 1-.3-.624l1.011-1.264h6.173c.485 0 .932-.284 1.139-.723l2.196-4.666c.063-.135.096-.284.096-.432v-.089c0-.559-.454-1.013-1.013-1.013zm.384 1.102a.385.385 0 0 1-.037.164L10.985 7.19a.633.633 0 0 1-.57.361H4.327L2.675 1.888h10.158c.211 0 .384.173.384.384v.09zm-9.441 8.968a1.26 1.26 0 0 0 0 2.517 1.26 1.26 0 0 0 0-2.517zm0 1.888a.63.63 0 1 1 .002-1.26.63.63 0 0 1-.002 1.26zm7.553-1.888a1.26 1.26 0 1 0 1.259 1.259 1.26 1.26 0 0 0-1.26-1.26zm0 1.888a.63.63 0 1 1 .001-1.26.63.63 0 0 1-.001 1.26z"/></symbol><symbol viewBox="0 0 60 40" id="discount" xmlns="http://www.w3.org/2000/svg"><path d="M53.92 0H5.572A5.523 5.523 0 0 0 .065 5.507v28.986A5.523 5.523 0 0 0 5.572 40h12.174a.87.87 0 0 0 0-1.74H5.572c-1 0-1.945-.393-2.66-1.106a3.749 3.749 0 0 1-1.108-2.661V17.97h55.884v16.522c0 1-.393 1.945-1.107 2.66a3.75 3.75 0 0 1-2.66 1.108H17.145a.87.87 0 0 0 0 1.739H53.92a5.523 5.523 0 0 0 5.508-5.507V5.507A5.523 5.523 0 0 0 53.92 0zm3.768 12.754h.391c-.39-1.624-.39-1.019-.39.831 0 1.85-.09 1.054.39 1.054l-.39-.146v1.74H1.803v-5.219L1.37 11c.48 0 .435.415.435-1s.016-.725-.465-.725h.465V7.536h55.884v5.218zm0-6.957H1.804v-.29c0-1 .394-1.944 1.108-2.66a3.747 3.747 0 0 1 2.66-1.108H53.92c1 0 1.945.393 2.661 1.107a3.745 3.745 0 0 1 1.107 2.661v.29z"/><path d="M9.566 22.03a2.612 2.612 0 0 0-2.609 2.608 2.612 2.612 0 0 0 2.609 2.609 2.612 2.612 0 0 0 2.608-2.61 2.612 2.612 0 0 0-2.608-2.608zm0 3.477a.87.87 0 0 1 0-1.739.87.87 0 0 1 0 1.74zm6.956 3.479a2.612 2.612 0 0 0-2.608 2.608 2.612 2.612 0 0 0 2.608 2.61 2.612 2.612 0 0 0 2.609-2.61 2.612 2.612 0 0 0-2.609-2.608zm0 3.478a.87.87 0 0 1 0-1.74.87.87 0 0 1 0 1.74zm2.354-10.18a.87.87 0 0 0-1.23 0L7.213 32.718a.87.87 0 1 0 1.23 1.23l10.434-10.434a.87.87 0 0 0 0-1.23zm32.66 2.064H26.029a.87.87 0 1 0 0 1.739h25.507a.87.87 0 1 0 0-1.74zm-12.753 4.638H26.029a.87.87 0 1 0 0 1.739h12.754a.87.87 0 1 0 0-1.74z"/></symbol><symbol viewBox="0 0 10 12" id="down" xmlns="http://www.w3.org/2000/svg"><path d="M0 0h2v12H0zm4 4h2v8H4zm4 2.999h2v5H8z"/></symbol><symbol viewBox="0 0 13 22" id="facebook" xmlns="http://www.w3.org/2000/svg"><path d="M8.462 8.462V5.077c0-.934.758-.846 1.692-.846h1.692V0H8.462a5.076 5.076 0 0 0-5.077 5.077v3.385H0v4.23h3.385V22h5.077v-9.308H11l1.692-4.23h-4.23z"/></symbol><symbol viewBox="0 0 16 16" id="fb" xmlns="http://www.w3.org/2000/svg"><path d="M16 8a8 8 0 1 0-8 8l.14-.002V9.771H6.423V7.767H8.14V6.293c0-1.709 1.043-2.64 2.568-2.64.73 0 1.358.055 1.541.08v1.786h-1.052c-.83 0-.99.394-.99.973v1.275h1.984l-.259 2.004h-1.725v5.92A8.004 8.004 0 0 0 16 8z"/></symbol><symbol viewBox="0 0 50 50" id="file" xmlns="http://www.w3.org/2000/svg"><path d="M19.531 28.125H.781A.78.78 0 0 1 0 27.344V.78A.78.78 0 0 1 .781 0h14.843a.78.78 0 0 1 .553.229l3.907 3.906a.778.778 0 0 1 .229.553v22.656a.78.78 0 0 1-.782.781zM1.563 26.562H18.75V5.012l-3.45-3.45H1.563v25z"/><path d="M19.531 5.469h-3.906a.78.78 0 1 1 0-1.563h3.906a.78.78 0 1 1 0 1.563z"/><path d="M15.625 5.469a.78.78 0 0 1-.781-.782V.781a.78.78 0 1 1 1.562 0v3.906a.78.78 0 0 1-.781.782zM49.219 50h-18.75a.78.78 0 0 1-.782-.781V22.656a.78.78 0 0 1 .782-.781h14.843c.208 0 .406.082.552.229l3.907 3.906a.778.778 0 0 1 .229.552V49.22a.78.78 0 0 1-.781.781zM31.25 48.437h17.188v-21.55l-3.45-3.448H31.25v25z"/><path d="M49.219 27.344h-3.907a.78.78 0 1 1 0-1.563h3.907a.78.78 0 1 1 0 1.563z"/><path d="M45.313 27.344a.78.78 0 0 1-.782-.782v-3.906a.78.78 0 1 1 1.563 0v3.907a.78.78 0 0 1-.782.78zM14.844 12.5H5.469a.78.78 0 1 1 0-1.563h9.375a.78.78 0 1 1 0 1.563zm0 3.906H5.469a.78.78 0 1 1 0-1.562h9.375a.78.78 0 1 1 0 1.562zm-4.688 3.907H5.47a.78.78 0 1 1 0-1.563h4.687a.78.78 0 1 1 0 1.563zm35.157 16.406H34.374a.78.78 0 1 1 0-1.563h10.938a.78.78 0 1 1 0 1.563zm0 3.906H34.374a.78.78 0 1 1 0-1.563h10.938a.78.78 0 1 1 0 1.563zm0 3.906H34.374a.78.78 0 1 1 0-1.562h10.938a.78.78 0 1 1 0 1.562zm0-10.937H34.374a.78.78 0 1 1 0-1.563h10.938a.78.78 0 1 1 0 1.563z"/><path d="M34.375 44.531a.78.78 0 0 1-.781-.781V32.812a.78.78 0 1 1 1.562 0V43.75a.78.78 0 0 1-.781.781zm5.469 0a.78.78 0 0 1-.782-.781v-7.813a.78.78 0 1 1 1.563 0v7.813a.78.78 0 0 1-.781.781zm5.469 0a.78.78 0 0 1-.782-.781V32.812a.78.78 0 1 1 1.563 0V43.75a.78.78 0 0 1-.782.781zm-35.157-3.906a.78.78 0 0 1-.781-.781v-9.375a.78.78 0 1 1 1.563 0v9.375a.78.78 0 0 1-.782.781z"/><path d="M27.344 40.625H10.156a.78.78 0 1 1 0-1.563h17.188a.78.78 0 1 1 0 1.563z"/><path d="M25 42.969a.78.78 0 0 1-.552-1.334l2.343-2.344a.78.78 0 1 1 1.105 1.105l-2.344 2.344a.78.78 0 0 1-.552.229z"/><path d="M27.344 40.625a.78.78 0 0 1-.553-.229l-2.343-2.344a.78.78 0 1 1 1.104-1.104l2.344 2.343a.78.78 0 0 1-.552 1.334zm12.5-20.312a.78.78 0 0 1-.782-.782v-9.375a.78.78 0 1 1 1.563 0v9.375a.78.78 0 0 1-.781.782z"/><path d="M39.844 10.938H22.656a.78.78 0 1 1 0-1.563h17.188a.78.78 0 1 1 0 1.563z"/><path d="M22.656 10.938a.78.78 0 0 1-.552-1.334l2.344-2.344a.78.78 0 1 1 1.104 1.105l-2.343 2.344a.78.78 0 0 1-.553.229z"/><path d="M25 13.281a.78.78 0 0 1-.552-.229l-2.344-2.343a.78.78 0 1 1 1.105-1.105l2.343 2.344A.78.78 0 0 1 25 13.28z"/></symbol><symbol viewBox="0 0 120 50" id="filetype" xmlns="http://www.w3.org/2000/svg"><path d="M95.58 37.145l-2.497 3.752h1.765l1.595-2.478 1.565 2.478h1.876l-2.498-3.742 2.297-3.42h-1.725l-1.454 2.287-1.405-2.288h-1.826l2.308 3.411zm4.936-3.41v7.162h5.066v-1.324h-3.491v-5.839h-1.575zm7.02 4.785h-1.525c-.006.441.074.822.241 1.143.167.321.391.586.672.793.288.207.615.358.983.451.375.1.759.15 1.154.15a4.36 4.36 0 0 0 1.284-.17c.374-.114.685-.27.933-.471.254-.208.445-.452.572-.733.127-.28.19-.585.19-.913 0-.4-.087-.729-.261-.983a2.056 2.056 0 0 0-.601-.622 2.53 2.53 0 0 0-.713-.33 5.72 5.72 0 0 0-.551-.151 149.7 149.7 0 0 1-1.094-.281 4.307 4.307 0 0 1-.652-.22c-.154-.074-.257-.154-.311-.242a.648.648 0 0 1-.08-.34c0-.154.033-.281.1-.382a.903.903 0 0 1 .602-.391 1.84 1.84 0 0 1 .381-.04c.194 0 .371.017.532.05.167.033.314.09.441.17.127.08.228.191.301.332.081.14.127.317.141.531h1.525c0-.414-.081-.766-.241-1.053a2.003 2.003 0 0 0-.632-.722 2.62 2.62 0 0 0-.923-.402 4.333 4.333 0 0 0-1.074-.13c-.321 0-.642.044-.963.13a2.677 2.677 0 0 0-.862.402c-.254.18-.462.408-.622.682a1.879 1.879 0 0 0-.231.953c0 .328.06.608.181.843.127.227.29.418.491.571a2.8 2.8 0 0 0 .682.381c.254.094.515.174.783.241.261.074.518.14.772.2.254.061.482.131.682.212.201.08.362.18.482.3a.62.62 0 0 1 .19.472.71.71 0 0 1-.14.452 1.016 1.016 0 0 1-.351.27 1.701 1.701 0 0 1-.451.14 3.67 3.67 0 0 1-.452.03 2.56 2.56 0 0 1-.602-.07 1.7 1.7 0 0 1-.511-.23 1.207 1.207 0 0 1-.342-.411 1.326 1.326 0 0 1-.13-.612zm6.975-7.518H90.907c-.354 0-.59-.236-.59-.59v-16.76c0-.353.236-.59.59-.59h14.162c.119 0 .355.119.473.119l9.441 9.56c.118.117.118.235.118.471v7.318c0 .236-.236.472-.59.472zm-23.014-1.18h22.424V23.33l-9.088-9.205H91.497v15.697zm23.014 17.467H90.907c-.354 0-.59-.236-.59-.59v-4.721c0-.354.236-.59.59-.59h23.604c.354 0 .59.236.59.59v4.72c0 .237-.236.59-.59.59zm-23.014-1.18h22.424v-3.541H91.497v3.54z"/><path d="M114.511 23.684h-9.442c-.354 0-.59-.236-.59-.59v-9.441c0-.236.118-.472.354-.59.236-.119.473 0 .591.118l9.323 9.441c.118.118.236.236.236.472.118.354-.118.59-.472.59zm-8.851-1.18h7.435l-7.435-7.553v7.553zm13.572 20.064H86.186c-.354 0-.59-.236-.59-.59V30.412c0-.354.236-.59.59-.59h33.046c.354 0 .59.236.59.59v11.566c0 .236-.236.59-.59.59zm-32.456-1.18h31.866V31.002H86.776v10.386zM12.446 35.6h1.525a2.886 2.886 0 0 0-.341-1.103 2.593 2.593 0 0 0-.693-.802 2.901 2.901 0 0 0-.943-.502 3.561 3.561 0 0 0-1.113-.17c-.549 0-1.043.096-1.485.29a3.177 3.177 0 0 0-1.103.803A3.568 3.568 0 0 0 7.6 35.32a4.42 4.42 0 0 0-.241 1.484c0 .522.08 1.01.24 1.465.161.448.392.84.693 1.174.3.334.668.598 1.103.792.442.188.936.281 1.485.281a3.53 3.53 0 0 0 1.214-.2c.368-.134.689-.328.963-.582.274-.254.495-.562.662-.923.167-.361.27-.766.31-1.214h-1.524c-.06.481-.227.87-.502 1.164-.267.294-.642.441-1.123.441-.355 0-.655-.067-.903-.2a1.768 1.768 0 0 1-.602-.552 2.462 2.462 0 0 1-.341-.763 4.106 4.106 0 0 1 0-1.796 2.44 2.44 0 0 1 .341-.782c.154-.234.355-.418.602-.552.248-.14.548-.21.903-.21.194 0 .378.033.552.1a1.524 1.524 0 0 1 .832.662c.094.147.154.311.18.492zm3.734 2.378h-1.525c-.007.442.074.823.24 1.144.168.32.392.585.673.792.287.208.615.358.983.452.375.1.759.15 1.154.15a4.36 4.36 0 0 0 1.284-.17c.374-.114.685-.271.933-.472a2 2 0 0 0 .571-.732c.128-.281.191-.585.191-.913 0-.401-.087-.729-.26-.983a2.06 2.06 0 0 0-.603-.622 2.534 2.534 0 0 0-.712-.331 5.692 5.692 0 0 0-.552-.15c-.448-.114-.812-.208-1.093-.282a4.29 4.29 0 0 1-.652-.22c-.154-.074-.258-.154-.311-.241a.644.644 0 0 1-.08-.341.67.67 0 0 1 .1-.381c.067-.1.15-.184.25-.251.108-.067.225-.114.352-.14.127-.027.254-.04.381-.04.194 0 .371.016.532.05.167.033.314.09.441.17.127.08.227.19.301.331.08.14.127.318.14.532h1.525c0-.415-.08-.766-.24-1.053a1.996 1.996 0 0 0-.633-.723 2.617 2.617 0 0 0-.922-.401 4.332 4.332 0 0 0-1.074-.13c-.32 0-.642.043-.963.13a2.7 2.7 0 0 0-.863.401c-.254.18-.461.408-.622.682a1.88 1.88 0 0 0-.23.953c0 .328.06.609.18.843.127.227.291.418.492.572.2.154.428.28.682.381.254.094.515.174.782.24.261.074.519.141.773.201.254.06.482.13.682.211.2.08.361.18.482.301a.62.62 0 0 1 .19.471.717.717 0 0 1-.14.452 1.01 1.01 0 0 1-.351.27c-.14.068-.291.114-.452.141-.16.02-.31.03-.451.03a2.55 2.55 0 0 1-.602-.07 1.705 1.705 0 0 1-.512-.23 1.209 1.209 0 0 1-.34-.412 1.314 1.314 0 0 1-.131-.612zm8.772 2.378l2.377-7.163h-1.625l-1.615 5.036h-.02l-1.595-5.036h-1.615l2.317 7.163h1.776zM28.405 31H4.595C4.238 31 4 30.765 4 30.412V13.588c0-.353.238-.588.595-.588h14.286c.12 0 .357.117.476.117l9.524 9.53c.12.118.12.235.12.47v7.295c0 .235-.239.588-.596.588zM5.19 29.823h22.62v-6.47l-9.167-9.177H5.191v15.647zm23.135 17.466H4.721c-.354 0-.59-.236-.59-.59v-4.721c0-.354.236-.59.59-.59h23.604c.354 0 .59.236.59.59v4.72c0 .355-.236.59-.59.59zm-23.014-1.18h22.424v-3.541H5.311v3.54z"/><path d="M28.325 23.802h-9.441c-.355 0-.59-.236-.59-.59v-9.56a.65.65 0 0 1 .354-.59c.236-.118.472 0 .59.119l9.323 9.441c.118.118.236.236.236.472.118.472-.118.708-.472.708zm-8.851-1.18h7.435l-7.435-7.553v7.553zm14.162 19.946H.59c-.354 0-.59-.236-.59-.59V30.412c0-.354.236-.59.59-.59h33.046c.354 0 .59.236.59.59v11.566c0 .354-.236.59-.59.59zM1.18 41.388h31.866V31.002H1.18v10.386zM42.239 26.02l.52-24.459h19.774L69.3 7.806l6.244 7.285V26.02h8.326v16.392l-8.326.39v5.595H42.238V41.63h-5.724V26.02h5.724z"/><path d="M47.646 33.284l-3.644 5.474h2.576l2.327-3.615 2.283 3.615h2.736l-3.644-5.459 3.352-4.99h-2.517l-2.122 3.336-2.05-3.336H44.28l3.366 4.975zm7.2-4.975v10.449h2.152v-7.332h.029l2.56 7.332h1.771l2.562-7.405h.029v7.405H66.1v-10.45h-3.234l-2.312 7.186h-.03L58.08 28.31h-3.234zm13.277 0v10.449h7.39v-1.932H70.42v-8.517h-2.297zM76.143 26H41.857c-.514 0-.857-.34-.857-.85V.85c0-.51.343-.85.857-.85H62.43c.171 0 .514.17.685.17L76.83 13.935c.171.17.171.34.171.68V25.15c0 .34-.343.85-.857.85zm-33.429-1.7h32.572v-9.346L62.086 1.7H42.714v22.602zM76.287 50H41.854c-.517 0-.86-.344-.86-.86v-6.887c0-.517.343-.861.86-.861h34.433c.517 0 .861.344.861.86v6.887c0 .517-.344.861-.86.861zm-33.572-1.722h32.712v-5.165H42.715v5.165z"/><path d="M76.288 15.739H62.514c-.516 0-.86-.345-.86-.861V.932c0-.344.171-.689.516-.86.344-.173.689 0 .86.171l13.602 13.774c.172.172.344.344.344.689.172.688-.172 1.033-.688 1.033zm-12.913-1.722h10.847L63.375 2.998v11.019zm20.66 29.096H35.828c-.516 0-.86-.344-.86-.86V25.38c0-.516.344-.86.86-.86h48.207c.517 0 .861.344.861.86v16.873c0 .516-.344.86-.86.86zM36.69 41.392h46.485V26.24H36.69v15.15z"/></symbol><symbol viewBox="0 0 20 20" id="four" xmlns="http://www.w3.org/2000/svg"><path d="M0 0h2.638v2.638H0zm0 5.639h2.638v2.638H0zm0 5.637h2.638v2.638H0zm0 5.638h2.638v2.638H0zM5.639 0h2.638v2.638H5.639zm0 5.639h2.638v2.638H5.639zm0 5.637h2.638v2.638H5.639zm0 5.638h2.638v2.638H5.639zM11.277 0h2.638v2.638h-2.638zm5.639 0h2.638v2.638h-2.638zm-5.639 5.639h2.638v2.638h-2.638zm5.637 0h2.638v2.638h-2.638zm-5.637 5.637h2.638v2.638h-2.638zm0 5.638h2.638v2.638h-2.638zm5.637-5.638h2.638v2.638h-2.638zm0 5.638h2.638v2.638h-2.638z"/></symbol><symbol viewBox="0 0 22 22" id="google" xmlns="http://www.w3.org/2000/svg"><path d="M5.156 11c0-1.09.3-2.11.822-2.985V4.307H2.27A10.917 10.917 0 0 0 0 11c0 2.452.798 4.782 2.27 6.693h3.708v-3.708A5.808 5.808 0 0 1 5.156 11zM11 16.843l-2.578 2.579L11 22c2.453 0 4.782-.798 6.694-2.27v-3.705h-3.705a5.843 5.843 0 0 1-2.989.819z"/><path d="M5.978 13.986L2.27 17.695c.291.378.608.74.952 1.084A10.928 10.928 0 0 0 11 22.001v-5.156a5.846 5.846 0 0 1-5.022-2.859zM22 11c0-.67-.06-1.34-.18-1.993l-.097-.528H11v5.156h5.219a5.817 5.817 0 0 1-2.23 2.39l3.705 3.705c.378-.291.74-.609 1.084-.952A10.928 10.928 0 0 0 22 11zM15.132 6.868l.456.456 3.646-3.646-.456-.456A10.928 10.928 0 0 0 11 0L8.422 2.578 11 5.156c1.56 0 3.028.608 4.132 1.712z"/><path d="M11 5.156V0C8.062 0 5.3 1.144 3.222 3.222c-.344.343-.661.706-.952 1.084l3.708 3.709A5.846 5.846 0 0 1 11 5.156z"/></symbol><symbol viewBox="0 0 16 16" id="in" xmlns="http://www.w3.org/2000/svg"><path d="M8 0a8 8 0 1 0 .002 16.002A8 8 0 0 0 8 0zM5.675 12.094H3.727V6.232h1.948v5.862zm-.974-6.662h-.013c-.653 0-1.076-.45-1.076-1.013 0-.575.436-1.013 1.102-1.013.667 0 1.077.438 1.09 1.013 0 .563-.423 1.013-1.103 1.013zm8 6.662h-1.948V8.958c0-.788-.283-1.326-.988-1.326-.538 0-.858.363-1 .713-.05.125-.063.3-.063.475v3.274H6.754s.025-5.312 0-5.862h1.948v.83c.259-.4.722-.968 1.756-.968 1.281 0 2.243.838 2.243 2.639v3.36z"/></symbol><symbol viewBox="0 0 16 16" id="insta" xmlns="http://www.w3.org/2000/svg"><path d="M9.531 8A1.531 1.531 0 1 1 6.47 8a1.531 1.531 0 0 1 3.06 0z"/><path d="M11.581 5.29a1.414 1.414 0 0 0-.344-.527 1.422 1.422 0 0 0-.528-.344c-.162-.063-.405-.138-.853-.158-.484-.022-.63-.027-1.856-.027-1.227 0-1.372.005-1.856.027-.448.02-.691.095-.853.158-.2.074-.38.191-.528.344-.153.148-.27.328-.344.528-.063.162-.138.405-.158.853-.022.484-.027.63-.027 1.856 0 1.227.005 1.372.027 1.856.02.448.095.691.158.853.074.2.19.38.343.529.149.152.33.27.529.343.162.063.405.138.853.158.484.022.63.027 1.856.027 1.227 0 1.372-.005 1.856-.027.448-.02.691-.095.853-.158.4-.154.718-.471.872-.872.063-.162.138-.405.158-.853.022-.484.027-.63.027-1.856 0-1.227-.005-1.372-.027-1.856-.02-.448-.095-.691-.158-.853zM8 10.36a2.359 2.359 0 1 1 0-4.72 2.359 2.359 0 0 1 0 4.718zm2.452-4.26a.551.551 0 1 1 0-1.102.551.551 0 0 1 0 1.102z"/><path d="M8 0a8 8 0 1 0 .002 16.002A8 8 0 0 0 8 0zm4.566 9.894c-.022.489-.1.823-.214 1.115a2.348 2.348 0 0 1-1.343 1.343c-.292.114-.626.192-1.115.214-.49.022-.646.028-1.894.028-1.248 0-1.404-.006-1.894-.028-.489-.022-.823-.1-1.115-.214a2.25 2.25 0 0 1-.814-.53 2.25 2.25 0 0 1-.53-.813c-.113-.292-.19-.626-.213-1.115-.022-.49-.028-.646-.028-1.894 0-1.248.006-1.404.028-1.894.022-.489.1-.823.213-1.115a2.25 2.25 0 0 1 .53-.814 2.25 2.25 0 0 1 .814-.53c.292-.113.626-.19 1.115-.213.49-.022.646-.028 1.894-.028 1.248 0 1.404.006 1.894.028.489.022.823.1 1.115.213.307.116.584.297.814.53.233.23.414.507.53.814.113.292.19.626.213 1.115.022.49.028.646.028 1.894 0 1.248-.005 1.404-.028 1.894z"/></symbol><symbol viewBox="0 0 16 13" id="mail" xmlns="http://www.w3.org/2000/svg"><path d="M14.667 0H1.333C.598 0 0 .61 0 1.36v9.516c0 .75.598 1.36 1.333 1.36h13.334c.735 0 1.333-.61 1.333-1.36V1.359C16 .61 15.402 0 14.667 0zM1.333.68h13.334c.049 0 .092.018.138.028a1807.285 1807.285 0 0 1-6.321 5.878.733.733 0 0 1-.484.211.733.733 0 0 1-.484-.211c-1.34-1.23-5.167-4.8-6.321-5.878.046-.01.09-.028.138-.028zM.667 10.876V1.359c0-.066.02-.127.037-.187.883.824 3.554 3.315 5.286 4.92-1.726 1.513-4.398 4.095-5.288 4.961-.016-.058-.035-.114-.035-.177zm14 .68H1.333c-.053 0-.1-.02-.15-.031.92-.895 3.609-3.492 5.304-4.971l.583.537c.274.253.596.386.93.386.334 0 .656-.133.93-.386.16-.146.361-.333.583-.537 1.695 1.479 4.383 4.076 5.304 4.97-.05.013-.097.032-.15.032zm.666-.68c0 .063-.02.12-.035.177-.89-.866-3.562-3.448-5.288-4.96 1.732-1.606 4.402-4.097 5.286-4.921.018.06.037.12.037.187v9.517z"/></symbol><symbol viewBox="0 0 8 12" id="next" xmlns="http://www.w3.org/2000/svg"><path d="M1 1.101l6 5-6 5"/></symbol><symbol viewBox="0 0 18 18" id="pen" xmlns="http://www.w3.org/2000/svg"><path d="M15.55.792a2.341 2.341 0 0 0-3.309 0l-.828.832-8.815 8.811-.02.019c-.004.004-.004.01-.008.01-.01.013-.024.027-.033.041 0 .005-.005.005-.005.01-.01.014-.014.023-.023.037-.005.005-.005.01-.01.014-.004.014-.009.024-.014.038 0 .004-.004.004-.004.009L.525 16.494a.46.46 0 0 0 .112.478.47.47 0 0 0 .482.112l5.877-1.96c.005 0 .005 0 .01-.005a.17.17 0 0 0 .041-.019.016.016 0 0 0 .01-.005c.014-.009.033-.018.047-.028.014-.009.028-.023.042-.032.004-.005.009-.005.009-.01.005-.004.014-.009.019-.018l9.643-9.644a2.341 2.341 0 0 0 0-3.308L15.55.792zM6.845 14.024L3.59 10.767l8.15-8.15 3.257 3.256-8.15 8.15zM3.13 11.633l2.845 2.845L1.704 15.9l1.427-4.267zm13.027-6.925l-.496.5-3.257-3.256.5-.5a1.404 1.404 0 0 1 1.985 0l1.272 1.272c.544.55.542 1.436-.004 1.984z"/></symbol><symbol viewBox="0 0 16 16" id="phone" xmlns="http://www.w3.org/2000/svg"><path d="M15.58 12.344l-3.238-2.16a.945.945 0 0 0-1.266.205l-.943 1.213a.403.403 0 0 1-.517.109l-.18-.099c-.595-.324-1.335-.728-2.826-2.22C5.119 7.9 4.714 7.16 4.39 6.566l-.098-.18a.404.404 0 0 1 .106-.519l1.212-.943a.946.946 0 0 0 .206-1.265L3.656.419A.94.94 0 0 0 2.39.136L1.035.948a1.91 1.91 0 0 0-.871 1.13C-.324 3.857.043 6.923 4.56 11.44 8.154 15.034 10.83 16 12.667 16c.423.002.845-.053 1.253-.164.476-.133.88-.445 1.13-.87l.815-1.354a.94.94 0 0 0-.285-1.268zm-.174.994l-.813 1.354c-.18.308-.47.534-.813.63-1.64.451-4.506.078-8.843-4.259C.601 6.726.227 3.86.678 2.22a1.38 1.38 0 0 1 .631-.815L2.663.593a.408.408 0 0 1 .55.124l1.174 1.761.984 1.477a.41.41 0 0 1-.089.55l-1.212.942a.933.933 0 0 0-.247 1.198l.096.175c.34.625.764 1.403 2.311 2.95 1.547 1.546 2.324 1.97 2.949 2.31l.175.097a.933.933 0 0 0 1.198-.247l.943-1.213a.41.41 0 0 1 .549-.089l3.238 2.16c.182.12.236.363.124.55z"/></symbol><symbol viewBox="0 0 11 16" id="point" xmlns="http://www.w3.org/2000/svg"><path d="M8.924 1.814c.884.928 1.39 2.278 1.479 3.679.088 1.4-.245 2.822-1.006 3.887l-.005.008-4.058 6.158-4.065-6.167-.005-.008c-.757-1.06-1.089-2.48-1-3.879.089-1.4.596-2.75 1.48-3.678C2.704.804 3.978.25 5.333.25c1.354 0 2.629.553 3.59 1.564zM3.186 5.552c0 1.254.974 2.295 2.197 2.295S7.58 6.806 7.58 5.552s-.974-2.296-2.197-2.296-2.197 1.042-2.197 2.296z"/></symbol><symbol viewBox="0 0 8 12" id="prev" xmlns="http://www.w3.org/2000/svg"><path d="M7 10.899l-6-5 6-5"/></symbol><symbol viewBox="0 0 10 12" id="price_down" xmlns="http://www.w3.org/2000/svg"><path d="M0 0h2v12H0zm4 4h2v8H4zm4 3h2v5H8z"/></symbol><symbol viewBox="0 0 10 12" id="price_up" xmlns="http://www.w3.org/2000/svg"><path d="M8 7h2v5H8zM4 4h2v8H4zM0 0h2v12H0z"/></symbol><symbol viewBox="0 0 20 20" id="search" xmlns="http://www.w3.org/2000/svg"><path d="M19.755 18.58l-4.808-4.809A8.431 8.431 0 0 0 8.429 0 8.428 8.428 0 0 0 0 8.429a8.428 8.428 0 0 0 8.429 8.428 8.384 8.384 0 0 0 5.338-1.906l4.809 4.804a.833.833 0 0 0 1.18-1.175zM8.43 15.18c-3.727 0-6.756-3.029-6.756-6.751A6.763 6.763 0 0 1 8.43 1.673c3.722 0 6.755 3.033 6.755 6.756 0 3.722-3.033 6.75-6.755 6.75z"/></symbol><symbol viewBox="0 0 24 24" id="star" xmlns="http://www.w3.org/2000/svg"><path d="M22.765 9.397a.676.676 0 0 0-.538-.453l-6.64-1.015-2.976-6.34c-.222-.474-.999-.474-1.222 0L8.413 7.93l-6.64 1.015a.674.674 0 0 0-.381 1.139l4.824 4.945-1.14 6.99a.673.673 0 0 0 .992.699L12 19.439l5.931 3.278a.672.672 0 0 0 .993-.699l-1.14-6.99 4.824-4.945a.675.675 0 0 0 .157-.686z"/><path d="M5.574 15.362l-1.267 7.767a.751.751 0 0 0 1.103.777L12 20.264l6.59 3.643a.748.748 0 0 0 1.103-.778l-1.267-7.767 5.36-5.494a.75.75 0 1 0-.423-1.265l-7.378-1.127L12.678.432c-.247-.526-1.11-.526-1.357 0L8.015 7.476.637 8.603a.75.75 0 0 0-.424 1.265zm3.063-6.464a.75.75 0 0 0 .565-.422L12 2.515l2.798 5.96a.747.747 0 0 0 .565.422l6.331.967-4.605 4.72a.75.75 0 0 0-.204.645l1.08 6.617-5.602-3.096a.755.755 0 0 0-.726 0l-5.602 3.096 1.08-6.617a.75.75 0 0 0-.204-.645l-4.605-4.72z"/></symbol><symbol viewBox="0 0 20 20" id="three" xmlns="http://www.w3.org/2000/svg"><path d="M0 0h3.882v3.882H0zm0 7.883h3.882v3.882H0zm0 7.882h3.882v3.882H0zM7.883 0h3.882v3.882H7.883zm0 7.883h3.882v3.882H7.883zm0 7.882h3.882v3.882H7.883zM15.766 0h3.882v3.882h-3.882zm0 7.883h3.882v3.882h-3.882zm0 7.882h3.882v3.882h-3.882z"/></symbol><symbol viewBox="0 0 22 18" id="twitter" xmlns="http://www.w3.org/2000/svg"><path d="M22 2.116a9.403 9.403 0 0 1-2.599.712A4.485 4.485 0 0 0 21.385.336a9.014 9.014 0 0 1-2.86 1.091 4.509 4.509 0 0 0-7.802 3.084c0 .358.03.702.105 1.029-3.75-.183-7.067-1.98-9.296-4.718a4.54 4.54 0 0 0-.618 2.28c0 1.562.805 2.947 2.004 3.748A4.454 4.454 0 0 1 .88 6.295v.05a4.531 4.531 0 0 0 3.614 4.43 4.5 4.5 0 0 1-1.183.15c-.289 0-.58-.017-.854-.078.585 1.787 2.243 3.1 4.215 3.142a9.063 9.063 0 0 1-5.593 1.924c-.37 0-.724-.017-1.079-.062a12.697 12.697 0 0 0 6.919 2.024c8.3 0 12.837-6.875 12.837-12.834 0-.2-.007-.392-.017-.583A8.999 8.999 0 0 0 22 2.116z"/></symbol><symbol viewBox="0 0 90 52" id="ukr" xmlns="http://www.w3.org/2000/svg"><path d="M86.768 18.554c-4.83-1.526-9.694-4.638-14.42-4.4-6.474.318-9.022-4.713-12.122-7.69-2.194-2.095-2.027-6.459-6.932-5.259-3.625.89-8.525.565-10.588 2.834-2.572 2.83-4.614 2.508-7.448 2.27-4.603-.398-9.134-.97-13.645-2.107-3.474-.862-7.174-1.093-10.755.274C8.39 5.43 6.22 6.257 8.565 9.48c1.418 1.936 1.24 3.577-1.264 4.853-1.38.696-2.528 2.079-3.458 3.383-3.99 5.568-3.768 10.898.592 11.267 5.894.497 11.912 2.938 17.882-1.375 4.061-2.94 9.777-.206 12.225 4.476.994 1.903 2.33 3.628 3.752 5.794-6.05-.576-5.91 4.13-7.865 7.206 5.91 1.908 8.628-2.043 11.55-5.322 1.311-1.466 2.853-3.132 4.423-1.522 2.449 2.516 5.473 2.067 8.398 2.588-.067.56-.306.95-.64 1.256-.993.91-2.774 1.053-2.817 2.722 1.359 1.18 4.236.883 4.34 3.33a4.62 4.62 0 0 1-.143 1.237c-.27 1.137 1.482 1.908 2.07 1.53 4.07-2.575 8.943-3.279 12.934-6.482-.795-.06-1.606-.25-2.377-.14-2.21.31-4.225.092-4.928-2.34-.696-2.405 2.237-3.323 3.016-3.47 6.805-1.324 12.119-5.787 18.37-8.156 4.738-1.805.589-6.45 3.232-8.919.576-.544.64-2.293-1.09-2.842z"/></symbol><symbol viewBox="0 0 10 12" id="up" xmlns="http://www.w3.org/2000/svg"><path d="M8 0h2v12H8zM4 4h2v8H4zM0 6.999h2v5H0z"/></symbol><symbol viewBox="0 0 23 24" id="user" xmlns="http://www.w3.org/2000/svg"><circle cx="11.286" cy="6.856" r="5.5"/><path d="M21.571 23.142a10.286 10.286 0 1 0-20.571 0"/></symbol><symbol viewBox="0 0 16 16" id="youtube" xmlns="http://www.w3.org/2000/svg"><path d="M7.004 9.499L9.606 8 7.004 6.501V9.5z"/><path d="M8 0a8 8 0 1 0 .002 16.002A8 8 0 0 0 8 0zm4.999 8.008s0 1.623-.206 2.405a1.253 1.253 0 0 1-.881.881C11.129 11.5 8 11.5 8 11.5s-3.121 0-3.912-.214a1.253 1.253 0 0 1-.881-.881C3.001 9.63 3.001 8 3.001 8s0-1.622.206-2.405a1.28 1.28 0 0 1 .881-.89C4.871 4.5 8 4.5 8 4.5s3.13 0 3.912.214c.428.115.766.453.881.881.214.783.206 2.413.206 2.413z"/></symbol></svg>