<svg width="63" height="50" viewBox="0 0 63 50" fill="none" xmlns="http://www.w3.org/2000/svg">
<path d="M5.70935 40.1251V6.75H6.79273V40.1251H5.70935Z" fill="#474A53" stroke="#474A53"/>
<path d="M10.9156 34.9167V6.75H13.0407V34.9167H10.9156Z" fill="#474A53" stroke="#474A53"/>
<path d="M17.1656 34.9167V6.75H18.249V34.9167H17.1656Z" fill="#474A53" stroke="#474A53"/>
<path d="M21.3344 34.9167V6.75H23.4594V34.9167H21.3344Z" fill="#474A53" stroke="#474A53"/>
<path d="M26.5406 34.9167V6.75H27.624V34.9167H26.5406Z" fill="#474A53" stroke="#474A53"/>
<path d="M2.08338 1.58338H1.58338V2.08338V5.75002H0.5V1.04163C0.5 0.742818 0.742819 0.5 1.04163 0.5H5.75001V1.58338H2.08338Z" fill="#474A53" stroke="#474A53"/>
<path d="M30.7094 40.1251V6.75H31.7927V40.1251H30.7094Z" fill="#474A53" stroke="#474A53"/>
<path d="M40.0844 34.9167V6.75H42.2094V34.9167H40.0844Z" fill="#474A53" stroke="#474A53"/>
<path d="M46.3344 34.9167V6.75H47.4177V34.9167H46.3344Z" fill="#474A53" stroke="#474A53"/>
<path d="M50.5 34.9167V6.75H52.625V34.9167H50.5Z" fill="#474A53" stroke="#474A53"/>
<path d="M55.7094 40.1251V6.75H56.7927V40.1251H55.7094Z" fill="#474A53" stroke="#474A53"/>
<path d="M1.58338 47.9166V48.4166H2.08338H5.75001V49.5H1.04163C0.742817 49.5 0.5 49.2572 0.5 48.9584V44.25H1.58338V47.9166Z" fill="#474A53" stroke="#474A53"/>
<path d="M60.4166 48.4166H60.9166V47.9166V44.25H62V48.9584C62 49.2572 61.7572 49.5 61.4584 49.5H56.75V48.4166H60.4166Z" fill="#474A53" stroke="#474A53"/>
<path d="M60.9166 2.08338V1.58338H60.4166H56.75V0.5H61.4584C61.7572 0.5 62 0.742817 62 1.04163V5.75002H60.9166V2.08338Z" fill="#474A53" stroke="#474A53"/>
<path d="M9.875 40.125V38H10.9584V40.125H9.875Z" fill="#474A53" stroke="#474A53"/>
<path d="M14.0406 40.125V38H15.124V40.125H14.0406Z" fill="#474A53" stroke="#474A53"/>
<path d="M18.2094 40.125V38H19.2927V40.125H18.2094Z" fill="#474A53" stroke="#474A53"/>
<path d="M22.375 40.125V38H23.4584V40.125H22.375Z" fill="#474A53" stroke="#474A53"/>
<path d="M26.5406 40.125V38H27.624V40.125H26.5406Z" fill="#474A53" stroke="#474A53"/>
<path d="M34.875 40.125V38H35.9584V40.125H34.875Z" fill="#474A53" stroke="#474A53"/>
<path d="M39.0406 40.125V38H40.124V40.125H39.0406Z" fill="#474A53" stroke="#474A53"/>
<path d="M43.2094 40.125V38H44.2927V40.125H43.2094Z" fill="#474A53" stroke="#474A53"/>
<path d="M47.375 40.125V38H48.4584V40.125H47.375Z" fill="#474A53" stroke="#474A53"/>
<path d="M51.5437 40.125V38H52.6271V40.125H51.5437Z" fill="#474A53" stroke="#474A53"/>
<path d="M35.9156 34.9167V6.75H36.999V34.9167H35.9156Z" fill="#474A53" stroke="#474A53"/>
<path d="M5.70935 40.1251V6.75H6.79273V40.1251H5.70935Z" fill="#474A53" stroke="#474A53"/>
<path d="M10.9156 34.9167V6.75H13.0407V34.9167H10.9156Z" fill="#474A53" stroke="#474A53"/>
<path d="M17.1656 34.9167V6.75H18.249V34.9167H17.1656Z" fill="#474A53" stroke="#474A53"/>
<path d="M21.3344 34.9167V6.75H23.4594V34.9167H21.3344Z" fill="#474A53" stroke="#474A53"/>
<path d="M26.5406 34.9167V6.75H27.624V34.9167H26.5406Z" fill="#474A53" stroke="#474A53"/>
<path d="M30.7094 40.1251V6.75H31.7927V40.1251H30.7094Z" fill="#474A53" stroke="#474A53"/>
<path d="M40.0844 34.9167V6.75H42.2094V34.9167H40.0844Z" fill="#474A53" stroke="#474A53"/>
<path d="M46.3344 34.9167V6.75H47.4177V34.9167H46.3344Z" fill="#474A53" stroke="#474A53"/>
<path d="M50.5 34.9167V6.75H52.625V34.9167H50.5Z" fill="#474A53" stroke="#474A53"/>
<path d="M55.7094 40.1251V6.75H56.7927V40.1251H55.7094Z" fill="#474A53" stroke="#474A53"/>
<path d="M9.875 40.125V38H10.9584V40.125H9.875Z" fill="#474A53" stroke="#474A53"/>
<path d="M14.0406 40.125V38H15.124V40.125H14.0406Z" fill="#474A53" stroke="#474A53"/>
<path d="M18.2094 40.125V38H19.2927V40.125H18.2094Z" fill="#474A53" stroke="#474A53"/>
<path d="M22.375 40.125V38H23.4584V40.125H22.375Z" fill="#474A53" stroke="#474A53"/>
<path d="M26.5406 40.125V38H27.624V40.125H26.5406Z" fill="#474A53" stroke="#474A53"/>
<path d="M34.875 40.125V38H35.9584V40.125H34.875Z" fill="#474A53" stroke="#474A53"/>
<path d="M39.0406 40.125V38H40.124V40.125H39.0406Z" fill="#474A53" stroke="#474A53"/>
<path d="M43.2094 40.125V38H44.2927V40.125H43.2094Z" fill="#474A53" stroke="#474A53"/>
<path d="M47.375 40.125V38H48.4584V40.125H47.375Z" fill="#474A53" stroke="#474A53"/>
<path d="M51.5406 40.125V38H52.624V40.125H51.5406Z" fill="#474A53" stroke="#474A53"/>
<path d="M35.9156 34.9167V6.75H36.999V34.9167H35.9156Z" fill="#474A53" stroke="#474A53"/>
</svg>
