<svg width="14" height="14" viewBox="0 0 14 14" fill="none" xmlns="http://www.w3.org/2000/svg">
<path d="M12.8326 1.25875H2.51747V1.34905L2.3884 0.906558C2.2329 0.372754 1.736 0 1.18007 0H0.314695C0.140753 0 0 0.140753 0 0.314695C0 0.488637 0.140753 0.629389 0.314695 0.629389H1.18007C1.45818 0.629389 1.7065 0.815634 1.78423 1.08268L3.74303 7.7983L2.73935 9.05275C2.59615 9.23191 2.51747 9.45656 2.51747 9.68579C2.51747 10.2448 2.97197 10.6993 3.53097 10.6993H12.2727C12.4467 10.6993 12.5874 10.5585 12.5874 10.3846C12.5874 10.2107 12.4467 10.0699 12.2727 10.0699H3.53097C3.31924 10.0699 3.14683 9.8975 3.14683 9.68576C3.14683 9.59879 3.17663 9.51336 3.23103 9.44577L4.24232 8.1818H10.4147C10.8999 8.1818 11.3471 7.89814 11.5539 7.459L13.7499 2.79251C13.8129 2.65822 13.8461 2.50918 13.8461 2.36135V2.27222C13.8461 1.71325 13.3916 1.25875 12.8326 1.25875ZM13.2168 2.36138C13.2168 2.41761 13.2042 2.47416 13.1802 2.52487L10.9845 7.19104C10.8809 7.41047 10.6575 7.55244 10.4147 7.55244H4.32693L2.67471 1.88811H12.8326C13.0444 1.88811 13.2168 2.06052 13.2168 2.27225V2.36138Z"/>
<path d="M3.77608 11.3286C3.08188 11.3286 2.51733 11.8931 2.51733 12.5874C2.51733 13.2816 3.08185 13.8461 3.77608 13.8461C4.47032 13.8461 5.03483 13.2816 5.03483 12.5874C5.03483 11.8931 4.47029 11.3286 3.77608 11.3286ZM3.77608 13.2167C3.42914 13.2167 3.14672 12.9343 3.14672 12.5874C3.14672 12.2404 3.42914 11.958 3.77608 11.958C4.12302 11.958 4.40544 12.2404 4.40544 12.5874C4.40544 12.9343 4.12302 13.2167 3.77608 13.2167Z"/>
<path d="M11.3286 11.3286C10.6344 11.3286 10.0698 11.8931 10.0698 12.5874C10.0698 13.2816 10.6343 13.8461 11.3286 13.8461C12.0228 13.8461 12.5873 13.2816 12.5873 12.5874C12.5873 11.8931 12.0228 11.3286 11.3286 11.3286ZM11.3286 13.2167C10.9816 13.2167 10.6992 12.9343 10.6992 12.5874C10.6992 12.2404 10.9816 11.958 11.3286 11.958C11.6755 11.958 11.9579 12.2404 11.9579 12.5874C11.9579 12.9343 11.6755 13.2167 11.3286 13.2167Z"/>
</svg>
