<svg width="60" height="40" viewBox="0 0 60 40" fill="none" xmlns="http://www.w3.org/2000/svg">
<path d="M53.9202 0H5.5724C2.53936 0.00347826 0.0686333 2.4742 0.065155 5.50725V34.4928C0.0686333 37.5258 2.53936 39.9965 5.5724 40H17.7463C18.2264 40 18.6159 39.6093 18.6159 39.1304C18.6159 38.6504 18.2264 38.2609 17.7463 38.2609H5.5724C4.57182 38.2609 3.62689 37.8667 2.91153 37.1536C2.19837 36.4383 1.80429 35.4933 1.80429 34.4928V17.9712H57.6883V34.4928C57.6883 35.4933 57.2952 36.4383 56.5811 37.1536C55.8657 37.8667 54.9208 38.2609 53.9202 38.2609H17.1456C16.6656 38.2609 16.2761 38.6504 16.2761 39.1304C16.2761 39.6093 16.6656 40 17.1456 40H53.9202C56.9533 39.9965 59.424 37.5258 59.4275 34.4928V5.50725C59.424 2.4742 56.9533 0.00347826 53.9202 0ZM57.6883 12.7537H58.0791C57.6883 11.1297 57.6883 11.7351 57.6883 13.5852C57.6883 15.4352 57.5988 14.6387 58.0791 14.6387L57.6883 14.4929V16.2321H1.80429V11.0143L1.36947 11C1.84982 11 1.80429 11.4148 1.80429 10C1.80429 8.58518 1.81983 9.27513 1.33948 9.27513H1.80429V7.53623H57.6883V12.7537ZM57.6883 5.7971H1.80429V5.50725C1.80429 4.50667 2.19837 3.5629 2.91153 2.84638C3.62805 2.13217 4.57182 1.73913 5.5724 1.73913H53.9202C54.9196 1.73913 55.8646 2.13217 56.5811 2.84638C57.2952 3.56174 57.6883 4.50667 57.6883 5.50725V5.7971Z" fill="#474A53"/>
<path d="M9.5657 22.0292C8.12732 22.0292 6.957 23.1994 6.957 24.6379C6.957 26.0762 8.12732 27.2466 9.5657 27.2466C11.0041 27.2466 12.1744 26.0764 12.1744 24.6379C12.1744 23.1994 11.0041 22.0292 9.5657 22.0292ZM9.5657 25.5074C9.08616 25.5074 8.69613 25.1174 8.69613 24.6379C8.69613 24.1583 9.08616 23.7683 9.5657 23.7683C10.0452 23.7683 10.4353 24.1583 10.4353 24.6379C10.4353 25.1174 10.0452 25.5074 9.5657 25.5074Z" fill="#474A53"/>
<path d="M16.5222 28.9857C15.0838 28.9857 13.9135 30.1559 13.9135 31.5944C13.9135 33.0328 15.0838 34.2031 16.5222 34.2031C17.9606 34.2031 19.1309 33.0329 19.1309 31.5944C19.1309 30.1559 17.9606 28.9857 16.5222 28.9857ZM16.5222 32.464C16.0427 32.464 15.6526 32.0739 15.6526 31.5944C15.6526 31.1149 16.0427 30.7248 16.5222 30.7248C17.0017 30.7248 17.3918 31.1149 17.3918 31.5944C17.3918 32.0739 17.0017 32.464 16.5222 32.464Z" fill="#474A53"/>
<path d="M18.8763 22.2837C18.5367 21.9441 17.9862 21.944 17.6465 22.2837L7.21159 32.7185C6.87199 33.0582 6.87199 33.6088 7.21147 33.9482C7.38133 34.1181 7.60382 34.203 7.82643 34.203C8.04892 34.203 8.27153 34.1181 8.44139 33.9482L18.8763 23.5135C19.2159 23.1739 19.2159 22.6233 18.8763 22.2837Z" fill="#474A53"/>
<path d="M51.536 24.3478H26.0292C25.5489 24.3478 25.1596 24.7371 25.1596 25.2173C25.1596 25.6976 25.5489 26.0869 26.0292 26.0869H51.536C52.0163 26.0869 52.4055 25.6976 52.4055 25.2173C52.4055 24.7371 52.0163 24.3478 51.536 24.3478Z" fill="#474A53"/>
<path d="M38.7826 28.9856H26.0292C25.5489 28.9856 25.1596 29.3749 25.1596 29.8552C25.1596 30.3354 25.5489 30.7247 26.0292 30.7247H38.7826C39.2629 30.7247 39.6522 30.3354 39.6522 29.8552C39.6522 29.3749 39.2629 28.9856 38.7826 28.9856Z" fill="#474A53"/>
</svg>
