<svg width="16" height="16" viewBox="0 0 16 16" fill="none" xmlns="http://www.w3.org/2000/svg">
<path d="M16 8C16 3.5824 12.4176 0 8 0C3.5824 0 0 3.5824 0 8C0 12.4176 3.5824 16 8 16C8.047 16 8.09375 15.999 8.14062 15.9982V9.77051H6.42188V7.76746H8.14062V6.29346C8.14062 4.58398 9.1842 3.65356 10.7091 3.65356C11.4393 3.65356 12.067 3.70801 12.25 3.7323V5.51892H11.1985C10.3689 5.51892 10.2083 5.91321 10.2083 6.4917V7.76746H12.1919L11.9333 9.77051H10.2083V15.6909C13.5521 14.7323 16 11.6516 16 8Z"/>
</svg>
