<svg width="120" height="50" viewBox="0 0 120 50" fill="none" xmlns="http://www.w3.org/2000/svg">
<path d="M95.5805 37.1453L93.0826 40.8972H94.8482L96.4433 38.4194L98.0082 40.8972H99.8842L97.3863 37.1554L99.6835 33.7345H97.9581L96.5035 36.0218L95.099 33.7345H93.2732L95.5805 37.1453ZM100.516 33.7345V40.8972H105.582V39.573H102.091V33.7345H100.516ZM107.536 38.5197H106.011C106.005 38.9611 106.085 39.3423 106.252 39.6633C106.419 39.9843 106.643 40.2485 106.924 40.4558C107.212 40.6631 107.539 40.8136 107.907 40.9072C108.282 41.0076 108.666 41.0577 109.061 41.0577C109.549 41.0577 109.977 41.0009 110.345 40.8872C110.719 40.7735 111.03 40.6163 111.278 40.4157C111.532 40.2084 111.723 39.9643 111.85 39.6834C111.977 39.4025 112.04 39.0982 112.04 38.7705C112.04 38.3692 111.953 38.0415 111.779 37.7874C111.612 37.5265 111.412 37.3192 111.178 37.1654C110.944 37.0116 110.706 36.9012 110.465 36.8344C110.231 36.7608 110.047 36.7106 109.914 36.6839C109.466 36.5702 109.101 36.4766 108.82 36.403C108.546 36.3294 108.329 36.2559 108.168 36.1823C108.014 36.1087 107.911 36.0285 107.857 35.9415C107.804 35.8546 107.777 35.7409 107.777 35.6004C107.777 35.4466 107.81 35.3196 107.877 35.2192C107.944 35.1189 108.028 35.0353 108.128 34.9684C108.235 34.9016 108.352 34.8547 108.479 34.828C108.606 34.8012 108.733 34.7879 108.86 34.7879C109.054 34.7879 109.231 34.8046 109.392 34.838C109.559 34.8715 109.706 34.9283 109.833 35.0086C109.96 35.0888 110.061 35.1992 110.134 35.3396C110.215 35.4801 110.261 35.6573 110.275 35.8713H111.8C111.8 35.4567 111.719 35.1055 111.559 34.818C111.405 34.5237 111.194 34.2829 110.927 34.0957C110.659 33.9084 110.352 33.7747 110.004 33.6944C109.663 33.6075 109.305 33.564 108.93 33.564C108.609 33.564 108.288 33.6075 107.967 33.6944C107.646 33.7813 107.359 33.9151 107.105 34.0957C106.851 34.2762 106.643 34.5036 106.483 34.7778C106.329 35.0454 106.252 35.363 106.252 35.7309C106.252 36.0586 106.312 36.3394 106.433 36.5735C106.56 36.8009 106.723 36.9915 106.924 37.1453C107.125 37.2992 107.352 37.4262 107.606 37.5265C107.86 37.6202 108.121 37.7004 108.389 37.7673C108.65 37.8409 108.907 37.9077 109.161 37.9679C109.415 38.0281 109.643 38.0984 109.843 38.1786C110.044 38.2589 110.205 38.3592 110.325 38.4796C110.452 38.5999 110.515 38.7571 110.515 38.9511C110.515 39.1316 110.469 39.2821 110.375 39.4025C110.281 39.5162 110.164 39.6065 110.024 39.6733C109.883 39.7402 109.733 39.787 109.573 39.8138C109.412 39.8338 109.262 39.8439 109.121 39.8439C108.914 39.8439 108.713 39.8205 108.519 39.7737C108.325 39.7202 108.155 39.6432 108.008 39.5429C107.867 39.4359 107.753 39.2988 107.666 39.1316C107.58 38.9644 107.536 38.7604 107.536 38.5197Z" fill="#474A53"/>
<path d="M114.511 31.0017H90.907C90.5529 31.0017 90.3169 30.7656 90.3169 30.4116V13.6526C90.3169 13.2985 90.5529 13.0625 90.907 13.0625H105.069C105.188 13.0625 105.424 13.1805 105.542 13.1805L114.983 22.7402C115.101 22.8582 115.101 22.9762 115.101 23.2123V30.5296C115.101 30.7656 114.865 31.0017 114.511 31.0017ZM91.4971 29.8215H113.921V23.3303L104.833 14.1247H91.4971V29.8215Z" fill="#474A53"/>
<path d="M114.511 47.2886H90.907C90.5529 47.2886 90.3169 47.0526 90.3169 46.6985V41.9777C90.3169 41.6236 90.5529 41.3876 90.907 41.3876H114.511C114.865 41.3876 115.101 41.6236 115.101 41.9777V46.6985C115.101 46.9346 114.865 47.2886 114.511 47.2886ZM91.4971 46.1084H113.921V42.5678H91.4971V46.1084Z" fill="#474A53"/>
<path d="M114.511 23.6844H105.069C104.715 23.6844 104.479 23.4484 104.479 23.0943V13.6527C104.479 13.4166 104.597 13.1806 104.833 13.0626C105.069 12.9445 105.306 13.0626 105.424 13.1806L114.747 22.6222C114.865 22.7403 114.983 22.8583 114.983 23.0943C115.101 23.4484 114.865 23.6844 114.511 23.6844ZM105.66 22.5042H113.095L105.66 14.9509V22.5042Z" fill="#474A53"/>
<path d="M119.232 42.5678H86.1862C85.8322 42.5678 85.5961 42.3317 85.5961 41.9777V30.4116C85.5961 30.0576 85.8322 29.8215 86.1862 29.8215H119.232C119.586 29.8215 119.822 30.0576 119.822 30.4116V41.9777C119.822 42.2137 119.586 42.5678 119.232 42.5678ZM86.7763 41.3876H118.642V31.0017H86.7763V41.3876Z" fill="#474A53"/>
<path d="M12.4458 35.6007H13.9707C13.9239 35.186 13.8102 34.8182 13.6296 34.4972C13.449 34.1761 13.2183 33.9086 12.9374 33.6946C12.6632 33.4739 12.3489 33.3067 11.9944 33.193C11.6466 33.0793 11.2755 33.0225 10.8809 33.0225C10.3325 33.0225 9.83759 33.1195 9.39619 33.3134C8.96148 33.5074 8.59365 33.7749 8.29269 34.116C7.99174 34.457 7.76101 34.8583 7.6005 35.3198C7.43999 35.7745 7.35974 36.2694 7.35974 36.8045C7.35974 37.3261 7.43999 37.8143 7.6005 38.2691C7.76101 38.7172 7.99174 39.1084 8.29269 39.4428C8.59365 39.7772 8.96148 40.0414 9.39619 40.2353C9.83759 40.4226 10.3325 40.5162 10.8809 40.5162C11.3223 40.5162 11.7269 40.4493 12.0947 40.3156C12.4626 40.1818 12.7836 39.9879 13.0578 39.7337C13.332 39.4796 13.5527 39.172 13.7199 38.8108C13.8871 38.4497 13.9907 38.0451 14.0309 37.597H12.506C12.4458 38.0785 12.2787 38.4664 12.0044 38.7607C11.7369 39.0549 11.3624 39.2021 10.8809 39.2021C10.5264 39.2021 10.2255 39.1352 9.97803 39.0014C9.73058 38.861 9.52995 38.6771 9.37612 38.4497C9.2223 38.2223 9.10861 37.9682 9.03504 37.6873C8.96817 37.3997 8.93473 37.1054 8.93473 36.8045C8.93473 36.4901 8.96817 36.1858 9.03504 35.8916C9.10861 35.5973 9.2223 35.3365 9.37612 35.1091C9.52995 34.875 9.73058 34.6911 9.97803 34.5574C10.2255 34.4169 10.5264 34.3467 10.8809 34.3467C11.0748 34.3467 11.2588 34.3801 11.4326 34.447C11.6132 34.5072 11.7737 34.5941 11.9142 34.7078C12.0546 34.8215 12.1716 34.9553 12.2653 35.1091C12.3589 35.2562 12.4191 35.4201 12.4458 35.6007ZM16.1798 37.9782H14.655C14.6483 38.4196 14.7285 38.8008 14.8957 39.1218C15.0629 39.4428 15.287 39.707 15.5678 39.9143C15.8554 40.1216 16.1831 40.2721 16.551 40.3657C16.9255 40.4661 17.31 40.5162 17.7046 40.5162C18.1928 40.5162 18.6208 40.4594 18.9887 40.3457C19.3632 40.232 19.6742 40.0748 19.9216 39.8742C20.1758 39.6669 20.3664 39.4228 20.4934 39.1419C20.6205 38.861 20.684 38.5567 20.684 38.229C20.684 37.8277 20.5971 37.5 20.4232 37.2459C20.256 36.985 20.0554 36.7777 19.8213 36.6239C19.5872 36.4701 19.3498 36.3597 19.1091 36.2928C18.875 36.2193 18.6911 36.1691 18.5573 36.1424C18.1092 36.0287 17.7447 35.935 17.4638 35.8615C17.1896 35.7879 16.9723 35.7143 16.8118 35.6408C16.658 35.5672 16.5543 35.487 16.5008 35.4C16.4473 35.3131 16.4205 35.1994 16.4205 35.0589C16.4205 34.9051 16.454 34.778 16.5209 34.6777C16.5877 34.5774 16.6713 34.4938 16.7717 34.4269C16.8787 34.3601 16.9957 34.3132 17.1228 34.2865C17.2498 34.2597 17.3769 34.2464 17.504 34.2464C17.6979 34.2464 17.8751 34.2631 18.0357 34.2965C18.2029 34.33 18.35 34.3868 18.4771 34.4671C18.6041 34.5473 18.7044 34.6577 18.778 34.7981C18.8583 34.9386 18.9051 35.1158 18.9185 35.3298H20.4433C20.4433 34.9151 20.363 34.564 20.2025 34.2765C20.0487 33.9822 19.838 33.7414 19.5705 33.5542C19.303 33.3669 18.9954 33.2332 18.6476 33.1529C18.3065 33.066 17.9487 33.0225 17.5742 33.0225C17.2532 33.0225 16.9322 33.066 16.6111 33.1529C16.2901 33.2398 16.0026 33.3736 15.7484 33.5542C15.4943 33.7347 15.287 33.9621 15.1264 34.2363C14.9726 34.5038 14.8957 34.8215 14.8957 35.1894C14.8957 35.5171 14.9559 35.7979 15.0763 36.032C15.2034 36.2594 15.3672 36.45 15.5678 36.6038C15.7685 36.7577 15.9959 36.8847 16.25 36.985C16.5041 37.0787 16.765 37.1589 17.0325 37.2258C17.2933 37.2994 17.5508 37.3662 17.8049 37.4264C18.0591 37.4866 18.2865 37.5568 18.4871 37.6371C18.6877 37.7174 18.8482 37.8177 18.9686 37.9381C19.0957 38.0584 19.1592 38.2156 19.1592 38.4095C19.1592 38.5901 19.1124 38.7406 19.0188 38.861C18.9251 38.9747 18.8081 39.065 18.6677 39.1318C18.5272 39.1987 18.3767 39.2455 18.2162 39.2723C18.0557 39.2923 17.9052 39.3024 17.7648 39.3024C17.5575 39.3024 17.3568 39.279 17.1629 39.2322C16.9689 39.1787 16.7984 39.1017 16.6513 39.0014C16.5108 38.8944 16.3971 38.7573 16.3102 38.5901C16.2233 38.4229 16.1798 38.2189 16.1798 37.9782ZM24.9517 40.3557L27.3292 33.193H25.7041L24.089 38.229H24.0689L22.4739 33.193H20.8587L23.1761 40.3557H24.9517Z" fill="#474A53"/>
<path d="M28.4049 30.9999H4.59536C4.23822 30.9999 4.00012 30.7646 4.00012 30.4116V13.5881C4.00012 13.2352 4.23822 12.9999 4.59536 12.9999H18.8811C19.0001 12.9999 19.2382 13.1175 19.3573 13.1175L28.8811 22.6469C29.0001 22.7646 29.0001 22.8822 29.0001 23.1175V30.4116C29.0001 30.6469 28.762 30.9999 28.4049 30.9999ZM5.1906 29.8234H27.8096V23.3528L18.643 14.1763H5.1906V29.8234Z" fill="#474A53"/>
<path d="M28.3251 47.2886H4.72096C4.3669 47.2886 4.13086 47.0526 4.13086 46.6985V41.9777C4.13086 41.6236 4.3669 41.3876 4.72096 41.3876H28.3251C28.6792 41.3876 28.9152 41.6236 28.9152 41.9777V46.6985C28.9152 47.0526 28.6792 47.2886 28.3251 47.2886ZM5.31107 46.1084H27.735V42.5678H5.31107V46.1084Z" fill="#474A53"/>
<path d="M28.3252 23.8023H18.8836C18.5295 23.8023 18.2935 23.5663 18.2935 23.2122V13.6525C18.2935 13.4165 18.4115 13.1805 18.6475 13.0624C18.8836 12.9444 19.1196 13.0624 19.2376 13.1805L28.5613 22.6221C28.6793 22.7401 28.7973 22.8582 28.7973 23.0942C28.9153 23.5663 28.6793 23.8023 28.3252 23.8023ZM19.4737 22.6221H26.909L19.4737 15.0688V22.6221Z" fill="#474A53"/>
<path d="M33.6361 42.5678H0.590287C0.236225 42.5678 0.000183105 42.3317 0.000183105 41.9777V30.4116C0.000183105 30.0576 0.236225 29.8215 0.590287 29.8215H33.6361C33.9902 29.8215 34.2262 30.0576 34.2262 30.4116V41.9777C34.2262 42.3317 33.9902 42.5678 33.6361 42.5678ZM1.18039 41.3876H33.046V31.0017H1.18039V41.3876Z" fill="#474A53"/>
<path d="M42.2385 26.0192L42.7589 1.56116H62.5335L69.2985 7.80577L75.5431 15.0912V26.0192H81.7877H83.8693V28.1008V31.7435V37.9881V42.4113L75.5431 42.8016V48.3958H42.2385V42.6715V41.6308H36.5143V34.8658V27.5804V26.0192H42.2385Z" fill="white"/>
<path d="M47.6463 33.2844L44.0023 38.7576H46.578L48.9048 35.1429L51.1878 38.7576H53.9244L50.2804 33.299L53.6317 28.3087H51.1146L48.9926 31.6453L46.9438 28.3087H44.2804L47.6463 33.2844ZM54.8462 28.3087V38.7576H56.9975V31.4258H57.0267L59.5877 38.7576H61.3585L63.9195 31.3526H63.9487V38.7576H66.1V28.3087H62.8658L60.5536 35.4941H60.5243L58.0804 28.3087H54.8462ZM68.1228 28.3087V38.7576H75.5131V36.8258H70.4204V28.3087H68.1228Z" fill="#474A53"/>
<path d="M76.1429 26.0001H41.8572C41.3429 26.0001 41.0001 25.6603 41.0001 25.1504V0.849795C41.0001 0.339991 41.3429 0.00012207 41.8572 0.00012207H62.4286C62.6001 0.00012207 62.9429 0.170057 63.1143 0.170057L76.8286 13.9348C77.0001 14.1047 77.0001 14.2746 77.0001 14.6145V25.1504C77.0001 25.4903 76.6572 26.0001 76.1429 26.0001ZM42.7143 24.3008H75.2858V14.9544L62.0858 1.69947H42.7143V24.3008Z" fill="#474A53"/>
<path d="M76.2875 50.0001H41.8539C41.3374 50.0001 40.9931 49.6558 40.9931 49.1393V42.2526C40.9931 41.7361 41.3374 41.3917 41.8539 41.3917H76.2875C76.804 41.3917 77.1483 41.7361 77.1483 42.2526V49.1393C77.1483 49.6558 76.804 50.0001 76.2875 50.0001ZM42.7148 48.2784H75.4267V43.1134H42.7148V48.2784Z" fill="#474A53"/>
<path d="M76.2876 15.7386H62.5142C61.9977 15.7386 61.6534 15.3942 61.6534 14.8777V0.932153C61.6534 0.587817 61.8255 0.243482 62.1699 0.0713142C62.5142 -0.100854 62.8586 0.0713142 63.0307 0.243482L76.632 14.0169C76.8041 14.1891 76.9763 14.3612 76.9763 14.7056C77.1485 15.3942 76.8041 15.7386 76.2876 15.7386ZM63.3751 14.0169H74.2216L63.3751 2.99817V14.0169Z" fill="#474A53"/>
<path d="M84.0351 43.1134H35.8282C35.3117 43.1134 34.9673 42.7691 34.9673 42.2526V25.3801C34.9673 24.8636 35.3117 24.5193 35.8282 24.5193H84.0351C84.5517 24.5193 84.896 24.8636 84.896 25.3801V42.2526C84.896 42.7691 84.5517 43.1134 84.0351 43.1134ZM36.689 41.3917H83.1743V26.241H36.689V41.3917Z" fill="#474A53"/>
</svg>
