<svg width="50" height="50" viewBox="0 0 50 50" fill="none" xmlns="http://www.w3.org/2000/svg">
<path d="M19.5312 28.125H0.78125C0.349045 28.125 0 27.776 0 27.3438V0.78125C0 0.349045 0.349045 0 0.78125 0H15.6242C15.8321 0 16.0305 0.082016 16.1766 0.228882L20.0836 4.13513C20.2305 4.28123 20.3125 4.4796 20.3125 4.6875V27.3438C20.3125 27.776 19.9635 28.125 19.5312 28.125ZM1.5625 26.5625H18.75V5.01099L15.3008 1.5625H1.5625V26.5625Z" fill="#474A53"/>
<path d="M19.5312 5.46875H15.625C15.1928 5.46875 14.8438 5.11971 14.8438 4.6875C14.8438 4.25529 15.1928 3.90625 15.625 3.90625H19.5312C19.9635 3.90625 20.3125 4.25529 20.3125 4.6875C20.3125 5.11971 19.9635 5.46875 19.5312 5.46875Z" fill="#474A53"/>
<path d="M15.625 5.46875C15.1928 5.46875 14.8438 5.11971 14.8438 4.6875V0.78125C14.8438 0.349045 15.1928 0 15.625 0C16.0572 0 16.4062 0.349045 16.4062 0.78125V4.6875C16.4062 5.11971 16.0572 5.46875 15.625 5.46875Z" fill="#474A53"/>
<path d="M49.2188 50H30.4688C30.0365 50 29.6875 49.651 29.6875 49.2188V22.6562C29.6875 22.224 30.0365 21.875 30.4688 21.875H45.3117C45.5196 21.875 45.718 21.957 45.8641 22.1039L49.7711 26.0101C49.918 26.1562 50 26.3546 50 26.5625V49.2188C50 49.651 49.651 50 49.2188 50ZM31.25 48.4375H48.4375V26.886L44.9883 23.4375H31.25V48.4375Z" fill="#474A53"/>
<path d="M49.2188 27.3438H45.3125C44.8803 27.3438 44.5312 26.9947 44.5312 26.5625C44.5312 26.1303 44.8803 25.7812 45.3125 25.7812H49.2188C49.651 25.7812 50 26.1303 50 26.5625C50 26.9947 49.651 27.3438 49.2188 27.3438Z" fill="#474A53"/>
<path d="M45.3125 27.3438C44.8803 27.3438 44.5312 26.9947 44.5312 26.5625V22.6562C44.5312 22.224 44.8803 21.875 45.3125 21.875C45.7447 21.875 46.0938 22.224 46.0938 22.6562V26.5625C46.0938 26.9947 45.7447 27.3438 45.3125 27.3438Z" fill="#474A53"/>
<path d="M14.8438 12.5H5.46875C5.03654 12.5 4.6875 12.151 4.6875 11.7188C4.6875 11.2865 5.03654 10.9375 5.46875 10.9375H14.8438C15.276 10.9375 15.625 11.2865 15.625 11.7188C15.625 12.151 15.276 12.5 14.8438 12.5Z" fill="#474A53"/>
<path d="M14.8438 16.4062H5.46875C5.03654 16.4062 4.6875 16.0572 4.6875 15.625C4.6875 15.1928 5.03654 14.8438 5.46875 14.8438H14.8438C15.276 14.8438 15.625 15.1928 15.625 15.625C15.625 16.0572 15.276 16.4062 14.8438 16.4062Z" fill="#474A53"/>
<path d="M10.1562 20.3125H5.46875C5.03654 20.3125 4.6875 19.9635 4.6875 19.5312C4.6875 19.099 5.03654 18.75 5.46875 18.75H10.1562C10.5885 18.75 10.9375 19.099 10.9375 19.5312C10.9375 19.9635 10.5885 20.3125 10.1562 20.3125Z" fill="#474A53"/>
<path d="M45.3125 36.7188H34.375C33.9428 36.7188 33.5938 36.3697 33.5938 35.9375C33.5938 35.5053 33.9428 35.1562 34.375 35.1562H45.3125C45.7447 35.1562 46.0938 35.5053 46.0938 35.9375C46.0938 36.3697 45.7447 36.7188 45.3125 36.7188Z" fill="#474A53"/>
<path d="M45.3125 40.625H34.375C33.9428 40.625 33.5938 40.276 33.5938 39.8438C33.5938 39.4115 33.9428 39.0625 34.375 39.0625H45.3125C45.7447 39.0625 46.0938 39.4115 46.0938 39.8438C46.0938 40.276 45.7447 40.625 45.3125 40.625Z" fill="#474A53"/>
<path d="M45.3125 44.5312H34.375C33.9428 44.5312 33.5938 44.1822 33.5938 43.75C33.5938 43.3178 33.9428 42.9688 34.375 42.9688H45.3125C45.7447 42.9688 46.0938 43.3178 46.0938 43.75C46.0938 44.1822 45.7447 44.5312 45.3125 44.5312Z" fill="#474A53"/>
<path d="M45.3125 33.5938H34.375C33.9428 33.5938 33.5938 33.2447 33.5938 32.8125C33.5938 32.3803 33.9428 32.0312 34.375 32.0312H45.3125C45.7447 32.0312 46.0938 32.3803 46.0938 32.8125C46.0938 33.2447 45.7447 33.5938 45.3125 33.5938Z" fill="#474A53"/>
<path d="M34.375 44.5312C33.9428 44.5312 33.5938 44.1822 33.5938 43.75V32.8125C33.5938 32.3803 33.9428 32.0312 34.375 32.0312C34.8072 32.0312 35.1562 32.3803 35.1562 32.8125V43.75C35.1562 44.1822 34.8072 44.5312 34.375 44.5312Z" fill="#474A53"/>
<path d="M39.8438 44.5312C39.4115 44.5312 39.0625 44.1822 39.0625 43.75V35.9375C39.0625 35.5053 39.4115 35.1562 39.8438 35.1562C40.276 35.1562 40.625 35.5053 40.625 35.9375V43.75C40.625 44.1822 40.276 44.5312 39.8438 44.5312Z" fill="#474A53"/>
<path d="M45.3125 44.5312C44.8803 44.5312 44.5312 44.1822 44.5312 43.75V32.8125C44.5312 32.3803 44.8803 32.0312 45.3125 32.0312C45.7447 32.0312 46.0938 32.3803 46.0938 32.8125V43.75C46.0938 44.1822 45.7447 44.5312 45.3125 44.5312Z" fill="#474A53"/>
<path d="M10.1562 40.625C9.72404 40.625 9.375 40.276 9.375 39.8438V30.4688C9.375 30.0365 9.72404 29.6875 10.1562 29.6875C10.5885 29.6875 10.9375 30.0365 10.9375 30.4688V39.8438C10.9375 40.276 10.5885 40.625 10.1562 40.625Z" fill="#474A53"/>
<path d="M27.3438 40.625H10.1562C9.72404 40.625 9.375 40.276 9.375 39.8438C9.375 39.4115 9.72404 39.0625 10.1562 39.0625H27.3438C27.776 39.0625 28.125 39.4115 28.125 39.8438C28.125 40.276 27.776 40.625 27.3438 40.625Z" fill="#474A53"/>
<path d="M25 42.9688C24.8002 42.9688 24.5999 42.8921 24.4477 42.7399C24.1421 42.4344 24.1421 41.9407 24.4477 41.6352L26.7914 39.2914C27.097 38.9859 27.5906 38.9859 27.8962 39.2914C28.2017 39.597 28.2017 40.0906 27.8962 40.3962L25.5524 42.7399C25.4002 42.8921 25.1999 42.9688 25 42.9688Z" fill="#474A53"/>
<path d="M27.3438 40.625C27.1439 40.625 26.9436 40.5484 26.7914 40.3962L24.4477 38.0524C24.1421 37.7469 24.1421 37.2532 24.4477 36.9477C24.7532 36.6421 25.2469 36.6421 25.5524 36.9477L27.8962 39.2914C28.2017 39.597 28.2017 40.0906 27.8962 40.3962C27.744 40.5484 27.5437 40.625 27.3438 40.625Z" fill="#474A53"/>
<path d="M39.8438 20.3125C39.4115 20.3125 39.0625 19.9635 39.0625 19.5312V10.1562C39.0625 9.72404 39.4115 9.375 39.8438 9.375C40.276 9.375 40.625 9.72404 40.625 10.1562V19.5312C40.625 19.9635 40.276 20.3125 39.8438 20.3125Z" fill="#474A53"/>
<path d="M39.8438 10.9375H22.6562C22.224 10.9375 21.875 10.5885 21.875 10.1562C21.875 9.72404 22.224 9.375 22.6562 9.375H39.8438C40.276 9.375 40.625 9.72404 40.625 10.1562C40.625 10.5885 40.276 10.9375 39.8438 10.9375Z" fill="#474A53"/>
<path d="M22.6563 10.9375C22.4564 10.9375 22.2561 10.8609 22.1039 10.7087C21.7984 10.4031 21.7984 9.90948 22.1039 9.60392L24.4477 7.26017C24.7532 6.95462 25.2469 6.95462 25.5524 7.26017C25.858 7.56573 25.858 8.05935 25.5524 8.36491L23.2087 10.7087C23.0565 10.8609 22.8562 10.9375 22.6563 10.9375Z" fill="#474A53"/>
<path d="M25 13.2813C24.8002 13.2813 24.5999 13.2046 24.4477 13.0524L22.1039 10.7087C21.7984 10.4031 21.7984 9.90948 22.1039 9.60392C22.4095 9.29837 22.9031 9.29837 23.2087 9.60392L25.5524 11.9477C25.858 12.2532 25.858 12.7469 25.5524 13.0524C25.4002 13.2046 25.1999 13.2813 25 13.2813Z" fill="#474A53"/>
</svg>
