<svg width="22" height="22" viewBox="0 0 22 22" fill="none" xmlns="http://www.w3.org/2000/svg">
<path d="M5.15625 11.0005C5.15625 9.91054 5.45656 8.88947 5.97828 8.01519V4.30664H2.26974C0.797844 6.21823 0 8.54796 0 11.0005C0 13.4531 0.797844 15.7828 2.26974 17.6944H5.97828V13.9859C5.45656 13.1116 5.15625 12.0905 5.15625 11.0005Z" fill="#FBBD00"/>
<path d="M11 16.8435L8.42188 19.4216L11 21.9997C13.4526 21.9997 15.7823 21.2019 17.6939 19.73V16.0254H13.9893C13.1074 16.549 12.082 16.8435 11 16.8435Z" fill="#0F9D58"/>
<path d="M5.97808 13.9863L2.26953 17.6949C2.56095 18.0733 2.87827 18.4358 3.22163 18.7792C5.29926 20.8568 8.06159 22.001 10.9998 22.001V16.8447C8.86751 16.8447 6.99867 15.6966 5.97808 13.9863Z" fill="#31AA52"/>
<path d="M22 10.9997C22 10.3305 21.9394 9.66003 21.8199 9.00699L21.7232 8.47852H11V13.6348H16.2186C15.7119 14.6429 14.9327 15.4653 13.9892 16.0255L17.6938 19.7301C18.0723 19.4386 18.4348 19.1213 18.7782 18.778C20.8558 16.7003 22 13.938 22 10.9997Z" fill="#3C79E6"/>
<path d="M15.1322 6.86782L15.5879 7.32355L19.2339 3.67757L18.7782 3.22184C16.7006 1.14421 13.9382 0 11 0L8.42188 2.57812L11 5.15625C12.5609 5.15625 14.0284 5.76409 15.1322 6.86782Z" fill="#CF2D48"/>
<path d="M10.9998 5.15625V0C8.06163 0 5.2993 1.14421 3.22163 3.2218C2.87827 3.56516 2.56095 3.9276 2.26953 4.30611L5.97808 8.01466C6.99871 6.30437 8.86756 5.15625 10.9998 5.15625Z" fill="#EB4132"/>
</svg>
