<svg width="16" height="13" viewBox="0 0 16 13" fill="none" xmlns="http://www.w3.org/2000/svg">
<path d="M14.6667 0H1.33334C0.597969 0 0 0.609694 0 1.35949V10.8758C0 11.6256 0.597969 12.2353 1.33334 12.2353H14.6667C15.402 12.2353 16 11.6256 16 10.8758V1.35949C16 0.609694 15.402 0 14.6667 0ZM1.33334 0.679728H14.6667C14.7158 0.679728 14.7591 0.697985 14.8052 0.708309C13.6508 1.78549 9.82322 5.35578 8.48375 6.58629C8.37894 6.68254 8.21 6.79738 8.00003 6.79738C7.79006 6.79738 7.62113 6.68254 7.51597 6.58597C6.17663 5.35565 2.34878 1.78517 1.19463 0.708373C1.24081 0.698049 1.28419 0.679728 1.33334 0.679728ZM0.666656 10.8758V1.35949C0.666656 1.29289 0.686344 1.23248 0.703969 1.17163C1.58747 1.99611 4.25822 4.48726 5.98997 6.09292C4.26384 7.60471 1.59241 10.1871 0.701875 11.053C0.686156 10.9952 0.666656 10.9386 0.666656 10.8758ZM14.6667 11.5556H1.33334C1.28009 11.5556 1.23275 11.5366 1.18303 11.5245C2.10325 10.6301 4.79169 8.03282 6.48747 6.55366C6.70853 6.75812 6.91047 6.94455 7.06966 7.0908C7.34441 7.34373 7.666 7.47714 8 7.47714C8.334 7.47714 8.65559 7.34369 8.93 7.09112C9.08925 6.9448 9.29134 6.75822 9.51253 6.55366C11.2084 8.03266 13.8965 10.6297 14.817 11.5245C14.7673 11.5366 14.72 11.5556 14.6667 11.5556ZM15.3333 10.8758C15.3333 10.9386 15.3138 10.9952 15.2982 11.053C14.4073 10.1867 11.7362 7.60455 10.0101 6.09295C11.7419 4.48729 14.4122 1.99636 15.296 1.17156C15.3137 1.23242 15.3333 1.29286 15.3333 1.35946V10.8758Z" fill="#212121"/>
</svg>
