<svg width="18" height="18" viewBox="0 0 18 18" fill="none" xmlns="http://www.w3.org/2000/svg">
<path d="M15.5494 0.791742C14.6353 -0.120685 13.1551 -0.120685 12.2411 0.791742L11.413 1.6244L2.59768 10.435L2.57895 10.4539C2.57441 10.4584 2.57441 10.4633 2.56958 10.4633C2.56021 10.4773 2.54616 10.4912 2.53694 10.5053C2.53694 10.51 2.53211 10.51 2.53211 10.5146C2.52275 10.5287 2.51821 10.5381 2.5087 10.5521C2.50416 10.5568 2.50416 10.5613 2.49947 10.5662C2.49479 10.5802 2.49011 10.5896 2.48528 10.6036C2.48528 10.6082 2.48074 10.6082 2.48074 10.613L0.52489 16.4944C0.467516 16.6619 0.511132 16.8473 0.637151 16.9716C0.7257 17.059 0.845133 17.1079 0.969395 17.1074C1.02018 17.1065 1.07053 17.0986 1.11912 17.084L6.99604 15.1235C7.00058 15.1235 7.00058 15.1235 7.00541 15.1189C7.02019 15.1145 7.03439 15.1082 7.04741 15.1C7.05107 15.0996 7.05429 15.098 7.05693 15.0955C7.07083 15.0861 7.08957 15.0766 7.10362 15.0673C7.11752 15.058 7.13172 15.044 7.14577 15.0346C7.15045 15.0298 7.15499 15.0298 7.15499 15.0253C7.15982 15.0206 7.16919 15.016 7.17387 15.0065L16.8173 5.3631C17.7297 4.44906 17.7297 2.96889 16.8173 2.055L15.5494 0.791742ZM6.84631 14.0238L3.58973 10.7674L11.7405 2.6166L14.9971 5.87303L6.84631 14.0238ZM3.13103 11.633L5.97604 14.4779L1.70399 15.9002L3.13103 11.633ZM16.1576 4.70798L15.6616 5.20869L12.4049 1.95196L12.9057 1.4514C13.4536 0.904003 14.3416 0.904003 14.8895 1.4514L16.1622 2.72403C16.7059 3.27435 16.7039 4.16029 16.1576 4.70798Z" fill="#969696"/>
</svg>
