<svg width="11" height="16" viewBox="0 0 11 16" fill="none" xmlns="http://www.w3.org/2000/svg">
<path d="M8.92427 1.81365L8.92428 1.81367C9.80759 2.74151 10.3149 4.09222 10.4029 5.49301C10.4909 6.8935 10.1579 8.3152 9.39725 9.38044L9.39711 9.38033L9.39196 9.38815L5.33386 15.5457L1.26938 9.37908L1.26953 9.37899L1.26409 9.37137C0.506723 8.31084 0.175258 6.89153 0.264051 5.49202C0.352859 4.09228 0.86014 2.74153 1.74346 1.81367L1.74348 1.81365C2.70506 0.803435 3.97941 0.25 5.33387 0.25C6.68807 0.25 7.96269 0.803441 8.92427 1.81365ZM3.18617 5.5518C3.18617 6.80571 4.16024 7.8472 5.3831 7.8472C6.60597 7.8472 7.58003 6.80571 7.58003 5.5518C7.58003 4.2979 6.60597 3.2564 5.3831 3.2564C4.16024 3.2564 3.18617 4.2979 3.18617 5.5518Z" fill="white" stroke="#212121" stroke-width="0.5"/>
</svg>
