<svg width="90" height="52" viewBox="0 0 90 52" fill="none" xmlns="http://www.w3.org/2000/svg">
<path d="M86.7678 18.5543C81.9387 17.028 77.0739 13.916 72.3481 14.1544C65.8736 14.4724 63.3259 9.44062 60.2257 6.46368C58.0318 4.36909 58.1987 0.00503613 53.2941 1.20535C49.6693 2.09565 44.7687 1.76974 42.7059 4.0392C40.1344 6.86908 38.0915 6.54714 35.2576 6.30867C30.6551 5.91122 26.1241 5.33888 21.613 4.20216C18.1392 3.33968 14.4389 3.10916 10.8579 4.47641C8.38968 5.4303 6.21958 6.257 8.56456 9.48036C9.98347 11.416 9.80462 13.0575 7.30065 14.3333C5.92148 15.0288 4.77284 16.412 3.8428 17.7156C-0.147651 23.284 0.0749236 28.6138 4.435 28.9835C10.3293 29.4803 16.3467 31.9207 22.3165 27.6083C26.3785 24.6671 32.0939 27.4016 34.5422 32.0836C35.5358 33.9874 36.8713 35.7124 38.2942 37.8785C32.2449 37.3022 32.384 42.0081 30.4285 45.0844C36.3387 46.9921 39.0573 43.0414 41.9786 39.7624C43.2902 38.2958 44.8323 36.6305 46.4023 38.2402C48.8506 40.7561 51.8752 40.307 54.8005 40.8276C54.7329 41.388 54.4944 41.7775 54.1606 42.0836C53.1669 42.9938 51.3863 43.1368 51.3426 44.8061C52.7019 45.9866 55.5795 45.6885 55.6828 48.1368C55.6948 48.4866 55.655 48.892 55.5397 49.3729C55.2695 50.5096 57.0223 51.2807 57.6105 50.9031C61.6804 48.3276 66.5532 47.6241 70.5437 44.4206C69.7488 44.361 68.938 44.1702 68.1669 44.2815C65.957 44.5915 63.9419 44.3729 63.2385 41.9405C62.5429 39.5359 65.4761 38.6178 66.2551 38.4707C73.0596 37.1472 78.3735 32.6838 84.6255 30.3149C89.3632 28.5105 85.2137 23.8643 87.8568 21.3961C88.4331 20.8515 88.4967 19.1027 86.7678 18.5543Z" stroke="#474A53" stroke-width="2"/>
</svg>
